<?xml version="1.0" encoding="UTF-8" standalone="no"?>
<!DOCTYPE svg PUBLIC "-//W3C//DTD SVG 1.1//EN" "http://www.w3.org/Graphics/SVG/1.1/DTD/svg11.dtd">
<svg width="100%" height="100%" viewBox="0 0 33 58" version="1.1" xmlns="http://www.w3.org/2000/svg" xmlns:xlink="http://www.w3.org/1999/xlink" xml:space="preserve" xmlns:serif="http://www.serif.com/" style="fill-rule:evenodd;clip-rule:evenodd;">
    <g transform="matrix(1,0,0,1,-39.3044,1.5736)">
        <path d="M70.548,32.156C69.312,14.841 58.181,0 55.707,0C54.47,0 42.103,14.841 40.866,32.156C40.866,50.707 55.707,54.417 55.707,54.417C55.707,54.417 70.548,50.707 70.548,32.156Z" style="fill:rgb(169,123,84);fill-rule:nonzero;"/>
    </g>
    <g transform="matrix(1,0,0,1,-39.3044,1.5736)">
        <path d="M55.734,53.891C55.725,53.894 55.716,53.897 55.707,53.899C55.699,53.897 55.69,53.894 55.681,53.891C55.578,53.861 55.426,53.815 55.23,53.748C54.839,53.615 54.275,53.404 53.597,53.093C52.239,52.471 50.427,51.452 48.616,49.867C45.009,46.711 41.371,41.284 41.366,32.174C41.981,23.625 45.343,15.667 48.719,9.835C50.407,6.92 52.093,4.546 53.428,2.905C54.097,2.084 54.672,1.453 55.111,1.033C55.332,0.821 55.509,0.672 55.64,0.578C55.69,0.543 55.728,0.52 55.754,0.505C55.809,0.516 55.902,0.544 56.038,0.615C56.216,0.707 56.434,0.853 56.69,1.06C57.201,1.473 57.821,2.096 58.515,2.913C59.9,4.545 61.544,6.913 63.154,9.827C66.373,15.652 69.433,23.614 70.048,32.174C70.044,41.284 66.406,46.711 62.798,49.867C60.987,51.452 59.175,52.471 57.818,53.093C57.139,53.404 56.576,53.615 56.184,53.748C55.989,53.815 55.836,53.861 55.734,53.891ZM55.789,0.488C55.789,0.488 55.788,0.489 55.785,0.49C55.788,0.488 55.789,0.488 55.789,0.488Z" style="fill:none;stroke:rgb(251,251,242);stroke-opacity:0.74902;stroke-width:1px;"/>
    </g>
    <g transform="matrix(1,0,0,1,-39.3044,1.5736)">
        <path d="M55.707,53.181C53.234,53.181 51.997,51.944 48.287,48.234C43.34,44.523 42.103,35.866 42.103,28.446L47.05,13.604C44.576,19.788 42.103,40.813 54.47,43.287L56.944,43.287C68.075,43.287 69.312,30.919 69.312,30.919C69.312,30.919 70.548,37.103 68.075,43.287C64.365,49.47 59.417,51.944 56.944,53.181L55.707,53.181Z" style="fill:rgb(158,112,75);fill-rule:nonzero;"/>
    </g>
    <g transform="matrix(1,0,0,1,-39.3044,1.5736)">
        <path d="M48.64,47.88L48.615,47.855L48.587,47.834C46.244,46.077 44.738,43.112 43.823,39.605C42.917,36.132 42.607,32.191 42.603,28.526L44.736,22.126C44.498,24.604 44.443,27.283 44.697,29.885C45.32,36.268 47.839,42.47 54.372,43.777L54.421,43.787L56.944,43.787C62.743,43.787 65.979,40.545 67.74,37.344C68.362,36.213 68.802,35.085 69.112,34.1C69.117,34.319 69.121,34.548 69.121,34.784C69.121,37.053 68.819,40.062 67.625,43.064C64.045,49.01 59.306,51.44 56.826,52.681L55.707,52.681C54.583,52.681 53.755,52.409 52.751,51.692C51.711,50.949 50.509,49.749 48.64,47.88Z" style="fill:none;stroke:rgb(251,251,242);stroke-opacity:0.74902;stroke-width:1px;"/>
    </g>
    <g transform="matrix(1,0,0,1,-39.3044,1.5736)">
        <path d="M51.997,8.657L51.997,21.025L53.234,24.735L53.234,39.576L55.707,44.523L55.707,53.181L53.234,53.181L54.47,44.523L51.997,39.576L51.997,23.498L50.76,19.788L51.997,8.657ZM60.654,14.841L60.654,25.972C60.654,27.209 63.128,28.446 63.128,32.156L61.891,44.523L59.417,48.234L58.181,53.181L60.654,51.944L60.654,48.234C60.654,46.997 63.128,46.997 63.128,44.523L64.364,30.919C64.364,28.446 60.654,25.972 60.654,24.735L60.654,14.841ZM45.813,27.209L45.813,39.576L47.05,46.997L49.523,48.234L49.523,50.707L48.287,49.47L47.05,46.997L44.576,40.813L45.813,32.156L45.813,27.209Z" style="fill:rgb(151,103,67);fill-rule:nonzero;"/>
    </g>
    <g transform="matrix(1,0,0,1,-39.3044,1.5736)">
        <path d="M51.497,17.685L51.497,20.417L51.269,19.734L51.497,17.685ZM52.497,39.458L52.497,24.106L52.734,24.816L52.734,39.694L52.786,39.8L55.207,44.641L55.207,52.681L53.81,52.681L54.965,44.594L54.987,44.439L54.918,44.3L52.497,39.458ZM63.625,32.206L63.628,32.181L63.628,32.156C63.628,30.292 63.039,29.003 62.425,28.04C62.774,28.464 63.099,28.897 63.352,29.334C63.673,29.886 63.859,30.408 63.864,30.898L62.63,44.478L62.628,44.501L62.628,44.523C62.628,45.051 62.498,45.422 62.319,45.706C62.134,45.997 61.881,46.225 61.591,46.442C61.49,46.518 61.394,46.586 61.294,46.656C61.246,46.691 61.196,46.725 61.146,46.762C61.049,46.831 60.949,46.905 60.852,46.983L62.307,44.801L62.376,44.697L62.388,44.573L63.625,32.206ZM58.929,52.247L59.882,48.439L60.174,48.001C60.161,48.075 60.154,48.152 60.154,48.234L60.154,51.635L58.929,52.247ZM45.313,39.576L45.313,39.618L45.796,42.517L45.09,40.752L45.313,39.191L45.313,39.576ZM48.698,49.174L48.168,48.115L49.023,48.543L49.023,49.5L48.698,49.174Z" style="fill:none;stroke:rgb(251,251,242);stroke-opacity:0.74902;stroke-width:1px;"/>
    </g>
    <g transform="matrix(1,0,0,1,-39.3044,1.5736)">
        <path d="M54.47,16.078L53.234,22.262L53.234,23.498L51.997,23.498L53.234,21.025L54.47,16.078ZM64.364,18.551L63.128,22.262L61.891,27.209L61.891,28.446L64.364,23.498L64.364,18.551ZM58.181,29.682L59.417,37.103C60.654,39.576 63.128,38.34 63.128,38.34L63.128,40.813C63.128,40.813 59.417,40.813 58.181,38.34L58.181,29.682ZM49.523,28.446L49.523,34.629L51.997,37.103L51.997,35.866L49.523,33.393L49.523,28.446ZM68.075,32.156L66.838,42.05C65.601,44.523 63.128,44.523 63.128,44.523L61.891,46.997C61.891,46.997 66.838,44.523 66.838,42.05L68.075,32.156ZM49.523,42.05L50.76,48.234C51.997,50.707 54.47,50.707 54.47,50.707L54.47,49.47L51.997,46.997L49.523,42.05ZM48.287,38.34L48.287,43.287L45.813,45.76L45.813,44.523L47.05,42.05L48.287,38.34ZM43.34,23.498L43.34,33.393L44.576,38.34L44.576,37.103L43.34,32.156L43.34,23.498ZM56.944,21.025L56.944,32.156C55.707,34.629 53.234,34.629 53.234,34.629L53.234,33.393C53.234,33.393 55.707,33.393 55.707,30.919L56.944,21.025ZM66.838,24.735L66.838,30.919L64.364,34.629L64.364,35.866C64.364,35.866 66.838,34.629 66.838,32.156L66.838,24.735ZM56.944,35.866L56.944,44.523L55.707,46.997L55.707,48.234C55.707,48.234 58.181,46.997 58.181,44.523L56.944,39.576L56.944,35.866Z" style="fill:rgb(151,103,67);fill-rule:nonzero;"/>
    </g>
    <g transform="matrix(1,0,0,1,-39.3044,1.5736)">
        <path d="M58.681,35.724L58.924,37.185L58.937,37.259L58.97,37.326C59.319,38.023 59.77,38.487 60.271,38.774C60.768,39.058 61.283,39.149 61.736,39.149C62.071,39.149 62.377,39.099 62.628,39.038L62.628,40.282C62.612,40.28 62.597,40.279 62.581,40.277C62.234,40.241 61.762,40.168 61.255,40.023C60.259,39.739 59.223,39.204 58.681,38.217L58.681,35.724ZM64.064,45.051C63.73,45.302 63.394,45.53 63.084,45.729L63.448,45.001C63.497,44.995 63.551,44.988 63.609,44.979C63.823,44.946 64.097,44.889 64.404,44.788C64.292,44.878 64.179,44.965 64.064,45.051ZM51.55,47.221L51.586,47.293L53.97,49.678L53.97,50.144C53.771,50.104 53.528,50.039 53.265,49.934C52.593,49.665 51.789,49.135 51.237,48.068L50.746,45.613L51.55,47.221ZM47.497,42.273L47.513,42.242L47.524,42.208L47.787,41.421L47.787,43.08L46.401,44.465L47.497,42.273ZM53.734,34.066L53.734,33.842C53.995,33.796 54.342,33.707 54.694,33.531C55.063,33.346 55.446,33.062 55.737,32.626C56.025,32.194 56.202,31.642 56.207,30.951L56.444,29.056L56.444,32.035C55.892,33.072 55.102,33.591 54.439,33.856C54.176,33.961 53.933,34.026 53.734,34.066ZM65.248,34.585C65.118,34.715 64.988,34.83 64.864,34.93L64.864,34.781L66.303,32.623C66.176,33.454 65.725,34.107 65.248,34.585ZM57.391,44.747L57.444,44.641L57.444,44.523L57.444,43.638L57.68,44.583C57.661,45.611 57.144,46.399 56.59,46.953C56.461,47.082 56.33,47.197 56.207,47.298L56.207,47.115L57.391,44.747ZM62.862,25.385L63.608,22.402L63.864,21.633L63.864,23.38L62.862,25.385Z" style="fill:none;stroke:rgb(251,251,242);stroke-opacity:0.74902;stroke-width:1px;"/>
    </g>
</svg>
