<?xml version="1.0" encoding="UTF-8" standalone="no"?>
<!DOCTYPE svg PUBLIC "-//W3C//DTD SVG 1.1//EN" "http://www.w3.org/Graphics/SVG/1.1/DTD/svg11.dtd">
<svg width="100%" height="100%" viewBox="0 0 29 59" version="1.1" xmlns="http://www.w3.org/2000/svg" xmlns:xlink="http://www.w3.org/1999/xlink" xml:space="preserve" xmlns:serif="http://www.serif.com/" style="fill-rule:evenodd;clip-rule:evenodd;">
    <g transform="matrix(1,0,0,1,-255.237,-0.411977)">
        <path d="M279.561,17.315L278.324,14.841L275.85,13.604L273.377,11.131L268.43,8.657L268.43,4.947L267.193,3.71L263.483,2.474L259.772,7.421L258.536,18.551L259.772,21.025L262.246,23.498L263.483,27.209L264.719,30.919C263.483,32.156 262.246,32.156 262.246,34.629L262.246,42.05L261.009,45.76L258.536,49.47L257.299,49.47C257.299,53.181 258.536,55.654 263.483,56.891C269.666,56.891 279.561,46.997 280.797,33.393C282.034,27.209 280.797,22.262 279.561,17.315Z" style="fill:rgb(238,208,163);fill-rule:nonzero;stroke:rgb(251,251,242);stroke-opacity:0.74902;stroke-width:1px;"/>
    </g>
    <g transform="matrix(1,0,0,1,-255.237,-0.411977)">
        <path d="M258.536,49.47L261.009,45.76L262.246,42.05L262.246,34.629C262.246,32.156 263.483,32.156 264.719,30.919L263.483,27.209L262.246,23.498L259.772,21.025L258.536,18.551L258.536,27.209L257.299,46.997L257.299,49.47L258.536,49.47ZM268.43,4.947L268.43,8.657L273.377,11.131L275.85,13.604L278.324,14.841L279.561,17.315C278.324,11.131 274.614,7.421 272.14,4.947L267.193,3.71L268.43,4.947Z" style="fill:rgb(139,108,90);fill-rule:nonzero;stroke:rgb(251,251,242);stroke-opacity:0.74902;stroke-width:1px;"/>
    </g>
    <g transform="matrix(1,0,0,1,-255.237,-0.411977)">
        <path d="M263.483,55.654C259.772,55.654 257.299,53.181 257.299,49.47L258.536,49.47L261.009,45.76L262.246,42.05L268.43,44.523L269.666,44.523C277.087,44.523 280.797,32.156 280.797,27.209C280.797,27.209 282.034,39.576 275.85,46.997C270.903,54.417 267.193,55.654 263.483,55.654Z" style="fill:rgb(231,194,147);fill-rule:nonzero;stroke:rgb(251,251,242);stroke-opacity:0.74902;stroke-width:1px;"/>
    </g>
    <g transform="matrix(1,0,0,1,-255.237,-0.411977)">
        <path d="M257.299,49.47L257.299,48.234L258.536,32.156L258.536,21.025L259.772,33.393L262.246,42.05L261.009,45.76L258.536,49.47L257.299,49.47Z" style="fill:rgb(135,102,81);fill-rule:nonzero;stroke:rgb(251,251,242);stroke-opacity:0.74902;stroke-width:1px;"/>
    </g>
    <g transform="matrix(1,0,0,1,-255.237,-0.411977)">
        <path d="M275.85,34.629L273.377,25.972C273.377,21.025 270.903,12.368 267.193,9.894C264.719,7.421 263.483,3.71 265.956,3.71L268.43,4.947L268.43,8.657L273.377,11.131L275.85,13.604C279.561,21.025 279.561,30.919 277.087,33.393L275.85,34.629Z" style="fill:rgb(240,213,171);fill-rule:nonzero;stroke:rgb(251,251,242);stroke-opacity:0.74902;stroke-width:1px;"/>
    </g>
    <g transform="matrix(1,0,0,1,-255.237,-0.411977)">
        <path d="M275.85,13.604L273.377,11.131L268.43,8.657L268.43,7.421L268.43,4.947C270.903,6.184 273.377,8.657 275.85,13.604Z" style="fill:rgb(151,122,106);fill-rule:nonzero;stroke:rgb(251,251,242);stroke-opacity:0.74902;stroke-width:1px;"/>
    </g>
</svg>
