<?xml version="1.0" encoding="UTF-8" standalone="no"?>
<!DOCTYPE svg PUBLIC "-//W3C//DTD SVG 1.1//EN" "http://www.w3.org/Graphics/SVG/1.1/DTD/svg11.dtd">
<svg width="100%" height="100%" viewBox="0 0 35 50" version="1.1" xmlns="http://www.w3.org/2000/svg" xmlns:xlink="http://www.w3.org/1999/xlink" xml:space="preserve" xmlns:serif="http://www.serif.com/" style="fill-rule:evenodd;clip-rule:evenodd;">
    <g transform="matrix(1,0,0,1,-78.8809,-5.85909)">
        <path d="M100.31,33.393C100.31,33.393 97.836,29.682 100.31,25.972C102.783,22.262 107.73,21.025 108.967,17.315C111.44,14.841 110.204,8.657 102.783,7.421C95.363,7.421 85.468,14.841 81.758,28.446C76.811,40.813 86.705,51.944 96.599,53.181C106.493,55.654 112.677,51.944 111.44,44.523C111.44,39.576 106.493,39.576 104.02,38.34C100.31,35.866 100.31,33.393 100.31,33.393Z" style="fill:rgb(238,208,163);fill-rule:nonzero;"/>
    </g>
    <g transform="matrix(1,0,0,1,-78.8809,-5.85909)">
        <path d="M99.819,33.551C99.819,33.551 99.819,33.552 99.819,33.553C99.828,33.643 99.846,33.768 99.879,33.922C99.945,34.231 100.074,34.658 100.326,35.162C100.832,36.173 101.821,37.474 103.742,38.756L103.768,38.773L103.796,38.787C104.419,39.098 105.178,39.332 105.926,39.564C105.976,39.579 106.025,39.594 106.075,39.609C106.89,39.862 107.703,40.122 108.434,40.487C109.161,40.851 109.78,41.306 110.22,41.932C110.655,42.551 110.94,43.375 110.94,44.523L110.94,44.565L110.947,44.606C111.538,48.148 110.36,50.708 107.94,52.131C105.472,53.583 101.605,53.917 96.721,52.696L96.691,52.688L96.661,52.685C91.867,52.085 87.043,49.079 84.025,44.703C81.017,40.342 79.818,34.642 82.222,28.631L82.233,28.605L82.241,28.577C85.906,15.138 95.622,7.948 102.742,7.921C106.291,8.523 108.287,10.285 109.131,12.113C109.99,13.975 109.672,15.903 108.613,16.961L108.53,17.045L108.493,17.157C107.931,18.841 106.52,19.994 104.808,21.239C104.647,21.356 104.483,21.474 104.318,21.593C102.768,22.71 101.066,23.935 99.894,25.695C98.562,27.693 98.564,29.697 98.894,31.182C99.059,31.923 99.305,32.538 99.51,32.97C99.613,33.186 99.707,33.357 99.775,33.476C99.791,33.504 99.806,33.529 99.819,33.551Z" style="fill:none;stroke:rgb(251,251,242);stroke-opacity:0.74902;stroke-width:1px;"/>
    </g>
    <g transform="matrix(1,0,0,1,-78.8809,-5.85909)">
        <path d="M101.546,53.181L97.836,53.181C87.942,51.944 81.758,43.287 80.521,35.866C80.521,28.446 84.232,21.025 84.232,21.025C82.787,23.737 82.039,26.765 82.054,29.838C82.07,32.911 82.848,35.932 84.319,38.629C85.791,41.327 87.909,43.616 90.484,45.293C93.059,46.969 96.011,47.98 99.073,48.234C104.02,48.234 105.257,45.76 104.02,43.287C102.783,40.813 97.836,37.103 97.836,33.393C97.836,28.446 100.31,25.972 100.31,25.972L99.073,32.156C99.073,35.866 104.02,38.34 106.493,39.576C110.204,40.813 112.677,43.287 111.44,46.997C111.44,50.707 108.967,53.181 101.546,53.181Z" style="fill:rgb(231,194,147);fill-rule:nonzero;"/>
    </g>
    <g transform="matrix(1,0,0,1,-78.8809,-5.85909)">
        <path d="M98.336,33.393C98.336,31.33 98.781,29.721 99.281,28.564L98.583,32.058L98.573,32.106L98.573,32.156C98.573,34.245 99.962,35.919 101.543,37.184C103.131,38.454 105.024,39.401 106.256,40.017L106.302,40.039L106.335,40.051C108.138,40.652 109.579,41.534 110.422,42.659C111.246,43.757 111.535,45.131 110.966,46.839L110.94,46.916L110.94,46.997C110.94,48.726 110.374,50.102 108.989,51.071C107.568,52.065 105.219,52.681 101.546,52.681L97.867,52.681C88.284,51.466 82.246,43.07 81.022,35.825C81.025,34.053 81.244,32.278 81.574,30.605C81.704,33.496 82.492,36.322 83.88,38.869C85.391,41.639 87.567,43.99 90.212,45.712C92.856,47.433 95.887,48.471 99.031,48.732L99.052,48.734L99.073,48.734C101.605,48.734 103.336,48.104 104.249,47.008C105.189,45.881 105.143,44.415 104.467,43.063C104.128,42.385 103.551,41.649 102.914,40.896C102.655,40.59 102.388,40.284 102.117,39.972C101.7,39.493 101.273,39.003 100.851,38.487C99.454,36.78 98.336,35.05 98.336,33.393Z" style="fill:none;stroke:rgb(251,251,242);stroke-opacity:0.74902;stroke-width:1px;"/>
    </g>
    <g transform="matrix(1,0,0,1,-78.8809,-5.85909)">
        <path d="M102.783,46.997C101.546,46.997 87.942,42.05 89.179,30.919C90.415,19.788 101.546,13.604 101.546,13.604L102.783,13.604L102.783,16.078C100.31,17.315 91.652,23.498 91.652,32.156C91.652,40.813 101.546,43.287 102.783,44.523L102.783,46.997Z" style="fill:rgb(241,215,176);fill-rule:nonzero;"/>
    </g>
    <g transform="matrix(1,0,0,1,-78.8809,-5.85909)">
        <path d="M102.283,46.389C102.182,46.36 102.069,46.326 101.946,46.287C101.477,46.136 100.866,45.906 100.165,45.593C98.764,44.968 97.022,44.021 95.359,42.736C92.028,40.162 89.085,36.295 89.676,30.974C90.277,25.565 93.286,21.336 96.18,18.441C97.624,16.997 99.032,15.894 100.077,15.152C100.599,14.782 101.031,14.502 101.33,14.316C101.479,14.223 101.596,14.154 101.674,14.108C101.676,14.107 101.678,14.105 101.68,14.104L102.283,14.104L102.283,15.775C100.892,16.532 98.266,18.359 95.916,21.002C93.4,23.833 91.152,27.657 91.152,32.156C91.152,36.711 93.768,39.627 96.466,41.531C97.813,42.482 99.195,43.192 100.302,43.735C100.469,43.818 100.629,43.896 100.781,43.97C101.138,44.143 101.451,44.296 101.718,44.435C101.977,44.57 102.161,44.677 102.283,44.761L102.283,46.389Z" style="fill:none;stroke:rgb(251,251,242);stroke-opacity:0.74902;stroke-width:1px;"/>
    </g>
</svg>
