<svg width="131" height="127" viewBox="0 0 131 127" fill="none" xmlns="http://www.w3.org/2000/svg">
<g clip-path="url(#clip0)">
<path d="M1.5503 70.6391L0 61.6214L1.5503 53.3551C2.32544 51.8522 2.32544 48.8462 3.87574 48.0948L10.0769 39.8285L13.1775 36.0711L20.929 30.8107C24.0296 29.3078 27.1302 21.0415 32.5562 17.2841C37.9822 13.5267 53.4852 10.5208 55.0355 9.76933C55.8106 9.01785 57.3609 4.50897 58.9112 3.7575C61.2367 2.25454 78.2899 1.50306 79.8402 1.50306C81.3905 1.50306 92.2426 2.25454 97.6686 7.51489C102.32 12.7752 103.87 32.3137 103.87 32.3137L102.32 54.1066L67.4379 81.9113C67.4379 81.9113 39.5325 90.9291 36.432 90.9291C33.3314 90.9291 4.65089 74.3965 4.65089 74.3965L1.5503 70.6391Z" fill="#8F664C" stroke="#FBFBF2" stroke-opacity="0.75"/>
<path d="M97.6695 7.5148C97.6695 7.5148 124.025 22.5444 129.451 56.361C135.652 89.426 117.823 121.74 74.4151 124.746C31.7819 127.751 13.1784 96.9408 8.52748 89.426C3.10144 81.9113 1.55115 70.6391 1.55115 70.6391L5.42689 71.3905L17.0541 77.4024C20.9298 78.9053 27.9062 78.1539 29.4565 78.9053H37.9831L43.4091 75.1479C43.4091 75.1479 45.7346 69.1361 47.2849 68.3846L64.3381 67.6331L72.8648 63.1243C73.6399 61.6213 75.9654 52.6036 77.5156 51.8521L82.1665 48.8462H88.3677L96.8943 42.8343L92.2435 33.8166L93.0186 29.3077V23.2959L99.2198 15.0296L97.6695 7.5148Z" fill="#745A49" stroke="#FBFBF2" stroke-opacity="0.75"/>
<path d="M93.7937 6.01171C93.7937 6.01171 87.5926 3.0058 80.6162 2.25432C72.8648 1.50284 60.4624 3.75727 59.6872 4.50875C58.9121 5.26023 57.3618 9.76911 55.0364 10.5206C52.7109 12.0235 37.9831 15.0295 32.5571 18.7869C27.9062 21.7928 24.8056 29.3076 23.2553 30.8105C21.705 31.562 15.5038 34.5679 13.1784 37.5738L10.0778 42.8342L3.10144 49.5975L1.55115 61.6212L3.10144 69.136L6.20203 69.8874L19.3795 76.6508L29.4565 77.4022C31.0068 77.4022 36.4328 78.9052 37.208 78.1537L42.634 74.3963C43.4091 73.6448 44.9594 68.3845 46.5097 67.633C47.2849 66.8815 62.0127 67.633 64.3381 66.13L72.0896 62.3726L75.9653 51.1005L82.1665 47.3431H88.3677L95.344 42.8342L90.6932 33.8164L91.4683 23.2957C92.2435 20.2898 96.8943 15.7809 96.8943 14.278C97.6695 13.5265 96.1192 7.51467 95.344 7.51467L93.7937 6.01171Z" fill="#F8E5CF" stroke="#FBFBF2" stroke-opacity="0.75"/>
<path d="M118.597 30.0592C118.597 30.0592 130.224 48.0947 129.449 68.3847C129.449 87.9231 120.923 108.965 98.4434 118.734C76.7393 127.752 57.3607 125.497 41.8577 118.734C27.13 112.722 16.2779 98.4438 12.4022 93.1835C8.52646 87.9231 6.97617 81.1598 6.97617 81.1598C6.97617 81.1598 38.7571 129.254 91.4671 103.704C137.201 81.9113 118.597 30.0592 118.597 30.0592Z" fill="#664B3C" stroke="#FBFBF2" stroke-opacity="0.75"/>
<path d="M77.5141 18.787C77.5141 18.787 86.8159 22.5444 79.8396 33.0651C72.0881 43.5858 50.3839 63.1243 33.3307 63.8757C17.0526 63.8757 17.0526 57.8639 22.4786 48.8461C27.9046 40.5799 54.2597 21.0414 64.3366 18.787C74.4135 16.5325 77.5141 18.787 77.5141 18.787Z" fill="#E0CDB9" stroke="#FBFBF2" stroke-opacity="0.75"/>
<path d="M33.3329 39.0768C33.3329 39.0768 22.4809 48.0946 20.1554 54.1064C18.6051 60.1182 24.0312 63.1242 31.0075 63.1242C37.9838 63.1242 51.1613 57.1123 51.1613 57.1123C51.1613 57.1123 41.0844 52.6035 36.4335 48.8461C32.5578 45.0887 33.3329 39.0768 33.3329 39.0768Z" fill="#D0BFAF" stroke="#FBFBF2" stroke-opacity="0.75"/>
<path d="M43.4064 28.5563C43.4064 28.5563 57.3591 16.5326 69.7615 16.5326C82.1638 17.2841 82.939 22.5445 82.939 25.5504L80.6136 31.5622C80.6136 31.5622 87.5899 23.296 81.3887 18.0356C75.1875 12.7753 57.3591 13.5267 43.4064 28.5563ZM40.3058 75.148L41.8561 73.6451L45.7319 66.8818L62.7851 66.1303L70.5366 62.3729L75.1875 51.1007L81.3887 46.5918H80.6136L74.4124 51.1007L69.7615 60.1184H62.01L64.3354 62.3729L62.01 65.3788L49.6076 64.6273L44.1816 65.3788L41.081 73.6451L40.3058 75.148Z" fill="#FFF6EB" stroke="#FBFBF2" stroke-opacity="0.75"/>
</g>
<defs>
<clipPath id="clip0">
<rect width="131" height="127" fill="white"/>
</clipPath>
</defs>
</svg>
