<?xml version="1.0" encoding="UTF-8" standalone="no"?>
<!DOCTYPE svg PUBLIC "-//W3C//DTD SVG 1.1//EN" "http://www.w3.org/Graphics/SVG/1.1/DTD/svg11.dtd">
<svg width="100%" height="100%" viewBox="0 0 45 47" version="1.1" xmlns="http://www.w3.org/2000/svg" xmlns:xlink="http://www.w3.org/1999/xlink" xml:space="preserve" xmlns:serif="http://www.serif.com/" style="fill-rule:evenodd;clip-rule:evenodd;">
    <g transform="matrix(1,0,0,1,-204.53,-11.5428)">
        <path d="M214.937,25.972C211.226,27.209 208.753,34.629 216.173,42.05C224.831,49.47 234.725,44.523 237.198,38.34C239.672,30.919 242.145,28.446 244.619,27.209L245.856,25.972C244.619,22.262 243.382,18.551 239.672,17.315C234.725,13.604 232.251,14.841 232.251,14.841L219.884,19.788L222.357,21.025L214.937,25.972Z" style="fill:rgb(166,107,62);fill-rule:nonzero;stroke:rgb(251,251,242);stroke-opacity:0.74902;stroke-width:1px;"/>
    </g>
    <g transform="matrix(1,0,0,1,-204.53,-11.5428)">
        <path d="M207.516,38.34C209.99,48.234 223.594,59.364 237.198,54.417C247.092,49.47 247.092,38.34 247.092,33.393L245.856,25.972L244.619,27.209C242.145,28.446 239.672,30.919 237.198,38.34C234.725,44.523 224.831,49.47 216.173,42.05C208.753,34.629 211.226,27.209 214.937,25.972L222.357,21.025L219.884,19.788L212.463,22.262C212.463,22.262 203.806,27.209 207.516,38.34Z" style="fill:rgb(147,90,50);fill-rule:nonzero;stroke:rgb(251,251,242);stroke-opacity:0.74902;stroke-width:1px;"/>
    </g>
    <g transform="matrix(1,0,0,1,-204.53,-11.5428)">
        <path d="M213.7,22.262L228.541,17.315L232.251,13.604C231.015,13.604 224.831,13.604 219.884,16.078L217.41,17.315C216.173,17.315 212.463,21.025 213.7,22.262Z" style="fill:rgb(191,167,143);fill-rule:nonzero;stroke:rgb(251,251,242);stroke-opacity:0.74902;stroke-width:1px;"/>
    </g>
    <g transform="matrix(1,0,0,1,-204.53,-11.5428)">
        <path d="M209.99,24.735L222.357,21.025C229.778,18.551 232.251,14.841 232.251,14.841L232.251,13.604L228.541,17.315L213.7,22.262C212.463,21.025 216.173,17.315 217.41,17.315C211.226,19.788 209.99,24.735 209.99,24.735Z" style="fill:rgb(162,143,126);fill-rule:nonzero;stroke:rgb(251,251,242);stroke-opacity:0.74902;stroke-width:1px;"/>
    </g>
    <g transform="matrix(1,0,0,1,-204.53,-11.5428)">
        <path d="M221.12,44.523L217.41,38.34C213.7,33.393 213.7,28.446 213.7,28.446L217.41,35.866L216.173,30.919L218.647,37.103L218.647,34.629L219.884,35.866L217.41,28.446L221.12,33.393L218.647,27.209L223.594,35.866L223.594,32.156L226.068,35.866L224.831,32.156C225.629,33.006 226.454,33.831 227.304,34.629L224.831,29.682L227.304,30.919L223.594,23.498L231.015,34.629L228.541,33.393L231.015,38.34L226.068,34.629C226.466,35.871 226.878,37.108 227.304,38.34L223.594,34.629L226.068,43.287L218.647,30.919L222.357,39.576L219.884,37.103L221.12,39.576L218.647,37.103L221.12,44.523ZM239.672,29.682L237.198,25.972L238.435,28.446L234.725,22.262L229.778,18.551L233.488,21.025L235.962,23.498L235.962,22.262L239.672,24.735L238.435,22.262C239.203,23.141 240.029,23.967 240.909,24.735L237.198,19.788L234.725,17.315L238.435,19.788L239.672,22.262L238.435,19.788L240.909,21.025C240.909,21.025 238.435,17.315 234.725,16.078L240.909,19.788L243.382,25.972L240.909,21.025L242.145,24.735L240.909,22.262L242.145,27.209L240.909,24.735L240.909,27.209L237.198,23.498L239.672,29.682ZM234.725,16.078L233.488,16.078L234.725,16.078Z" style="fill:rgb(188,123,69);fill-rule:nonzero;stroke:rgb(251,251,242);stroke-opacity:0.74902;stroke-width:1px;"/>
    </g>
</svg>
