<?xml version="1.0" encoding="UTF-8" standalone="no"?>
<!DOCTYPE svg PUBLIC "-//W3C//DTD SVG 1.1//EN" "http://www.w3.org/Graphics/SVG/1.1/DTD/svg11.dtd">
<svg width="100%" height="100%" viewBox="0 0 31 52" version="1.1" xmlns="http://www.w3.org/2000/svg" xmlns:xlink="http://www.w3.org/1999/xlink" xml:space="preserve" xmlns:serif="http://www.serif.com/" style="fill-rule:evenodd;clip-rule:evenodd;">
    <g transform="matrix(1,0,0,1,-2.93845,-5.35901)">
        <path d="M18.796,49.47L21.269,39.576C23.743,35.866 23.743,32.156 23.743,30.919L23.743,37.103L21.269,46.997C20.032,49.47 20.032,51.944 23.743,49.47C26.216,48.234 29.927,35.866 29.927,35.866L31.163,21.025L28.69,11.131L26.216,9.894L24.98,24.735C23.743,32.156 20.032,39.576 18.796,42.05C18.796,44.523 17.559,51.944 16.322,50.707L20.032,30.919C23.743,23.498 23.743,8.657 23.743,8.657L22.506,7.421L20.032,7.421C20.032,7.421 21.269,17.315 18.796,23.498C15.855,32.346 13.784,41.458 12.612,50.707L12.612,40.813L17.559,16.078L17.559,8.657C16.322,7.421 15.085,8.657 13.849,9.894C11.375,11.131 8.902,16.078 6.428,32.156C3.955,43.287 5.191,48.234 6.428,50.707C6.428,50.707 7.665,53.181 7.665,49.47L10.138,39.576L13.849,29.682L11.375,38.34L8.902,48.234L12.612,51.944L13.849,53.181L15.085,54.417L17.559,53.181L18.796,49.47Z" style="fill:rgb(156,108,79);fill-rule:nonzero;stroke:rgb(251,251,242);stroke-opacity:0.74902;stroke-width:1px;"/>
    </g>
    <g transform="matrix(1,0,0,1,-2.93845,-5.35901)">
        <path d="M16.322,50.707C17.559,51.944 18.796,44.523 18.796,42.05C20.032,39.576 23.743,32.156 24.98,24.735L26.216,9.894L28.69,11.131L27.453,9.894C26.216,8.657 26.216,11.131 24.98,11.131L24.98,9.894L23.743,8.657C23.743,8.657 23.743,23.498 20.032,30.919L16.322,50.707ZM17.559,16.078L12.612,40.813L12.612,50.707L13.849,45.76L18.796,23.498C21.269,17.315 20.032,7.421 20.032,7.421L20.032,8.657L17.559,8.657L17.559,16.078ZM20.032,54.417C22.506,54.417 24.98,50.707 26.216,48.234L29.927,35.866C29.927,35.866 26.216,48.234 23.743,49.47C20.032,51.944 20.032,49.47 21.269,46.997L23.743,37.103L23.743,30.919C23.743,32.156 23.743,35.866 21.269,39.576L18.796,49.47L17.559,53.181L20.032,54.417Z" style="fill:rgb(133,86,56);fill-rule:nonzero;stroke:rgb(251,251,242);stroke-opacity:0.74902;stroke-width:1px;"/>
    </g>
    <g transform="matrix(1,0,0,1,-2.93845,-5.35901)">
        <path d="M12.612,51.944L8.902,48.234L11.375,38.34L13.849,29.682L10.138,39.576L7.665,49.47C7.665,53.181 6.428,50.707 6.428,50.707L7.665,53.181L13.849,53.181L12.612,51.944Z" style="fill:rgb(133,86,56);fill-rule:nonzero;stroke:rgb(251,251,242);stroke-opacity:0.74902;stroke-width:1px;"/>
    </g>
    <g transform="matrix(1,0,0,1,-2.93845,-5.35901)">
        <path d="M15.085,54.417L13.849,53.181L12.612,51.944L8.902,48.234L10.138,43.287L11.375,44.523L11.375,46.997L12.612,50.707L13.849,45.76C14.667,45.899 15.504,45.899 16.322,45.76L16.322,50.707L17.559,50.707L18.796,45.76L20.032,45.76L18.796,49.47L17.559,53.181L15.085,54.417Z" style="fill:rgb(144,96,68);fill-rule:nonzero;stroke:rgb(251,251,242);stroke-opacity:0.74902;stroke-width:1px;"/>
    </g>
    <g transform="matrix(1,0,0,1,-2.93845,-5.35901)">
        <path d="M21.269,50.707L21.269,46.997L21.269,50.707ZM23.743,49.47L28.69,39.576L23.743,49.47Z" style="fill:rgb(229,220,212);fill-rule:nonzero;stroke:rgb(251,251,242);stroke-opacity:0.74902;stroke-width:1px;"/>
    </g>
    <g transform="matrix(1,0,0,1,-2.93845,-5.35901)">
        <path d="M21.269,50.707L21.269,46.997L21.269,44.523L23.743,42.05C28.69,35.866 29.927,28.446 29.927,28.446L28.69,39.576L23.743,49.47L21.269,50.707Z" style="fill:rgb(144,96,68);fill-rule:nonzero;stroke:rgb(251,251,242);stroke-opacity:0.74902;stroke-width:1px;"/>
    </g>
    <g transform="matrix(1,0,0,1,-2.93845,-5.35901)">
        <path d="M17.559,50.707L16.322,50.707L16.322,49.47L16.322,45.76L18.796,45.76L17.559,50.707ZM12.612,50.707L11.375,46.997L11.375,44.523L13.849,45.76L12.612,50.707ZM20.032,54.417L18.796,53.181L17.559,53.181L18.796,49.47L20.032,45.76L21.269,44.523C21.226,45.347 21.226,46.173 21.269,46.997L21.269,50.707C22.222,50.629 23.108,50.186 23.743,49.47L28.69,39.576L27.453,44.523C24.98,50.707 22.506,53.181 20.032,54.417Z" style="fill:rgb(122,76,48);fill-rule:nonzero;stroke:rgb(251,251,242);stroke-opacity:0.74902;stroke-width:1px;"/>
    </g>
    <g transform="matrix(1,0,0,1,-2.93845,-5.35901)">
        <path d="M7.665,51.944L6.428,50.707L5.191,43.287L7.665,25.972L7.665,39.576L8.902,42.05C8.047,44.429 7.628,46.943 7.665,49.47L7.665,51.944Z" style="fill:rgb(144,96,68);fill-rule:nonzero;stroke:rgb(251,251,242);stroke-opacity:0.74902;stroke-width:1px;"/>
    </g>
    <g transform="matrix(1,0,0,1,-2.93845,-5.35901)">
        <path d="M10.138,53.181L8.902,53.181L6.428,50.707L7.665,51.944L7.665,50.707L7.665,49.47L7.665,48.234L8.902,42.05L10.138,43.287L8.902,48.234L12.612,51.944L13.849,53.181L12.612,53.181L10.138,53.181Z" style="fill:rgb(122,76,48);fill-rule:nonzero;stroke:rgb(251,251,242);stroke-opacity:0.74902;stroke-width:1px;"/>
    </g>
</svg>
