<?xml version="1.0" encoding="UTF-8" standalone="no"?>
<!DOCTYPE svg PUBLIC "-//W3C//DTD SVG 1.1//EN" "http://www.w3.org/Graphics/SVG/1.1/DTD/svg11.dtd">
<svg width="100%" height="100%" viewBox="0 0 34 59" version="1.1" xmlns="http://www.w3.org/2000/svg" xmlns:xlink="http://www.w3.org/1999/xlink" xml:space="preserve" xmlns:serif="http://www.serif.com/" style="fill-rule:evenodd;clip-rule:evenodd;">
    <g transform="matrix(1,0,0,1,-119.194,-0.411977)">
        <path d="M128.132,7.421L124.421,21.025L135.552,48.234L147.92,21.025C147.92,21.025 146.683,12.368 142.973,7.421L141.736,6.184L142.973,8.657C144.21,11.131 141.736,12.368 140.499,16.078C140.499,18.551 138.026,23.498 135.552,23.498C133.079,22.262 130.605,13.604 130.605,9.894C129.369,6.184 134.316,3.71 134.316,3.71C131.842,3.71 130.605,4.947 128.132,7.421Z" style="fill:rgb(172,206,127);fill-rule:nonzero;stroke:rgb(251,251,242);stroke-opacity:0.74902;stroke-width:1px;"/>
    </g>
    <g transform="matrix(1,0,0,1,-119.194,-0.411977)">
        <path d="M130.605,9.894C130.605,13.604 133.079,22.262 135.552,23.498C138.026,23.498 140.499,18.551 140.499,16.078C141.736,12.368 144.21,11.131 142.973,8.657L141.736,6.184C139.263,2.474 135.552,2.474 135.552,2.474L134.316,3.71C134.316,3.71 129.369,6.184 130.605,9.894Z" style="fill:rgb(172,206,127);fill-rule:nonzero;stroke:rgb(251,251,242);stroke-opacity:0.74902;stroke-width:1px;"/>
    </g>
    <g transform="matrix(1,0,0,1,-119.194,-0.411977)">
        <path d="M135.552,48.234L135.552,46.997L133.079,29.682C131.842,23.498 128.132,17.315 125.658,13.604L128.132,7.421C130.605,4.947 131.842,3.71 134.316,3.71C134.316,3.71 130.605,6.184 130.605,9.894C130.605,13.604 133.079,22.262 135.552,23.498C138.026,23.498 140.499,18.551 140.499,16.078L142.973,9.894L142.973,8.657L141.736,6.184L142.973,7.421L145.446,13.604C139.253,23.664 135.839,35.187 135.552,46.997L135.552,48.234Z" style="fill:rgb(159,188,109);fill-rule:nonzero;stroke:rgb(251,251,242);stroke-opacity:0.74902;stroke-width:1px;"/>
    </g>
    <g transform="matrix(1,0,0,1,-119.194,-0.411977)">
        <path d="M135.552,23.498C138.026,23.498 140.499,18.551 140.499,16.078C140.499,18.551 138.026,23.498 135.552,23.498ZM130.605,9.894C130.605,6.184 134.316,3.71 134.316,3.71C134.316,3.71 130.605,6.184 130.605,9.894ZM142.973,9.894L142.973,8.657L142.973,9.894Z" style="fill:rgb(159,188,109);fill-rule:nonzero;stroke:rgb(251,251,242);stroke-opacity:0.74902;stroke-width:1px;"/>
    </g>
    <g transform="matrix(1,0,0,1,-119.194,-0.411977)">
        <path d="M125.658,12.368L126.895,11.131C128.132,11.131 130.605,14.841 130.605,17.315L131.842,22.262L134.316,29.682L135.552,38.34L125.658,12.368Z" style="fill:rgb(141,121,97);fill-rule:nonzero;stroke:rgb(251,251,242);stroke-opacity:0.74902;stroke-width:1px;"/>
    </g>
    <g transform="matrix(1,0,0,1,-119.194,-0.411977)">
        <path d="M124.421,11.131L125.658,11.131L131.842,24.735C135.552,32.156 135.552,42.05 135.552,45.76C135.552,48.234 130.605,44.523 130.605,44.523L124.421,11.131Z" style="fill:rgb(222,210,196);fill-rule:nonzero;stroke:rgb(251,251,242);stroke-opacity:0.74902;stroke-width:1px;"/>
    </g>
    <g transform="matrix(1,0,0,1,-119.194,-0.411977)">
        <path d="M124.421,11.131C124.881,23.863 128.723,36.242 135.552,46.997L135.552,56.891C135.552,56.891 125.658,55.654 121.948,42.05C119.474,28.446 124.421,11.131 124.421,11.131Z" style="fill:rgb(197,176,150);fill-rule:nonzero;stroke:rgb(251,251,242);stroke-opacity:0.74902;stroke-width:1px;"/>
    </g>
    <g transform="matrix(1,0,0,1,-119.194,-0.411977)">
        <path d="M145.446,12.368L145.446,11.131C144.21,11.131 141.736,14.841 141.736,17.315L139.263,22.262L138.026,29.682L136.789,38.34L145.446,12.368Z" style="fill:rgb(141,121,97);fill-rule:nonzero;stroke:rgb(251,251,242);stroke-opacity:0.74902;stroke-width:1px;"/>
    </g>
    <g transform="matrix(1,0,0,1,-119.194,-0.411977)">
        <path d="M147.92,11.131L146.683,11.131L140.499,24.735C136.789,32.156 135.552,42.05 135.552,45.76C135.552,48.234 141.736,44.523 141.736,44.523L147.92,11.131Z" style="fill:rgb(222,210,196);fill-rule:nonzero;stroke:rgb(251,251,242);stroke-opacity:0.74902;stroke-width:1px;"/>
    </g>
    <g transform="matrix(1,0,0,1,-119.194,-0.411977)">
        <path d="M147.92,11.131C147.92,11.131 141.736,19.788 139.263,29.682L135.552,46.997L135.552,56.891C135.552,56.891 146.683,55.654 149.157,42.05C152.867,28.446 147.92,11.131 147.92,11.131Z" style="fill:rgb(197,176,150);fill-rule:nonzero;stroke:rgb(251,251,242);stroke-opacity:0.74902;stroke-width:1px;"/>
    </g>
    <g transform="matrix(1,0,0,1,-119.194,-0.411977)">
        <path d="M135.552,55.654C133.079,55.654 130.605,53.181 129.369,51.944C126.895,50.707 123.185,44.523 121.948,38.34L121.948,29.682C121.948,29.682 121.948,43.287 130.605,49.47C132.056,50.454 133.809,50.892 135.552,50.707L135.552,55.654ZM135.552,55.654L135.552,50.707C142.973,49.47 150.393,39.576 150.393,34.629C150.393,34.629 150.393,46.997 142.973,51.944L135.552,55.654Z" style="fill:rgb(187,165,140);fill-rule:nonzero;stroke:rgb(251,251,242);stroke-opacity:0.74902;stroke-width:1px;"/>
    </g>
</svg>
