<?xml version="1.0" encoding="UTF-8" standalone="no"?>
<!DOCTYPE svg PUBLIC "-//W3C//DTD SVG 1.1//EN" "http://www.w3.org/Graphics/SVG/1.1/DTD/svg11.dtd">
<svg width="100%" height="100%" viewBox="0 0 48 50" version="1.1" xmlns="http://www.w3.org/2000/svg" xmlns:xlink="http://www.w3.org/1999/xlink" xml:space="preserve" xmlns:serif="http://www.serif.com/" style="fill-rule:evenodd;clip-rule:evenodd;">
    <g transform="matrix(1,0,0,1,-290.367,-8.33193)">
        <path d="M303.396,43.799L304.633,42.562L303.396,33.905L304.633,32.668L304.633,31.431L303.396,32.668L303.396,17.827L307.106,25.248L304.633,42.562L303.396,43.799Z" style="fill:rgb(216,204,197);fill-rule:nonzero;"/>
    </g>
    <g transform="matrix(1,0,0,1,-290.367,-8.33193)">
        <path d="M304.279,31.078L303.896,31.461L303.896,19.945L306.589,25.331L304.633,39.027L303.926,34.082L304.986,33.022L305.133,32.875L305.133,32.668L305.133,31.431L305.133,30.224L304.279,31.078Z" style="fill:none;stroke:rgb(251,251,242);stroke-opacity:0.74902;stroke-width:1px;"/>
    </g>
    <g transform="matrix(1,0,0,1,-290.367,-8.33193)">
        <path d="M314.527,20.3L313.29,21.537L312.053,24.011C309.58,24.011 308.343,22.774 310.817,20.3L313.29,11.643C313.29,10.406 310.817,9.17 309.58,10.406C307.106,10.406 307.106,11.643 307.106,12.88L304.633,11.643C303.396,11.643 302.159,15.353 299.686,15.353C298.449,15.353 295.976,17.827 297.212,20.3C298.449,22.774 300.923,22.774 299.686,24.011L297.212,26.484C297.212,26.484 297.212,24.011 294.739,24.011C293.502,24.011 291.028,28.958 292.265,32.668L293.502,37.615L294.739,38.852L294.739,42.562L299.686,43.799L298.449,46.272C297.212,47.509 295.976,49.983 298.449,51.219C299.686,53.693 302.159,52.456 302.159,52.456C302.159,53.693 300.923,54.93 305.87,56.167C309.58,57.403 312.053,56.167 313.29,54.93L312.053,51.219L314.527,51.219L314.527,20.3Z" style="fill:rgb(231,166,105);fill-rule:nonzero;"/>
    </g>
    <g transform="matrix(1,0,0,1,-290.367,-8.33193)">
        <path d="M296.712,26.486L296.712,27.691L297.566,26.838L300.039,24.364C300.389,24.015 300.645,23.582 300.465,23.086C300.389,22.879 300.252,22.715 300.122,22.588C299.991,22.459 299.832,22.336 299.677,22.219C299.627,22.182 299.575,22.144 299.523,22.105C298.913,21.653 298.173,21.103 297.659,20.077C297.144,19.046 297.387,18.003 297.937,17.177C298.213,16.764 298.556,16.422 298.89,16.188C299.238,15.945 299.523,15.853 299.686,15.853C301.18,15.853 302.244,14.735 303.007,13.818C303.154,13.642 303.289,13.474 303.416,13.317C303.644,13.033 303.846,12.781 304.049,12.566C304.201,12.405 304.329,12.293 304.438,12.223C304.484,12.193 304.522,12.174 304.552,12.162L306.883,13.327L307.606,13.689L307.606,12.88C307.606,12.218 307.623,11.77 307.832,11.457C308.003,11.199 308.409,10.906 309.58,10.906L309.787,10.906L309.933,10.76C310.355,10.339 311.04,10.292 311.713,10.561C312.04,10.692 312.323,10.885 312.518,11.094C312.691,11.281 312.769,11.452 312.786,11.586L310.371,20.04C309.779,20.647 309.374,21.21 309.157,21.731C308.926,22.287 308.895,22.831 309.133,23.307C309.365,23.771 309.803,24.069 310.298,24.249C310.795,24.43 311.399,24.511 312.053,24.511L312.362,24.511L312.501,24.234L313.701,21.833L314.027,21.508L314.027,50.719L312.053,50.719L311.36,50.719L311.579,51.378L312.715,54.785C311.537,55.825 309.329,56.792 306.028,55.692L306.009,55.686L305.991,55.681C304.772,55.377 303.966,55.08 303.438,54.798C302.911,54.517 302.698,54.271 302.607,54.088C302.517,53.908 302.506,53.716 302.539,53.446C302.551,53.352 302.566,53.266 302.582,53.17C302.591,53.117 302.6,53.06 302.61,52.997C302.635,52.835 302.659,52.65 302.659,52.456L302.659,51.647L301.937,52.008L301.937,52.008L301.936,52.009L301.936,52.009L301.923,52.015C301.91,52.021 301.888,52.031 301.859,52.042C301.802,52.066 301.715,52.1 301.606,52.133C301.387,52.2 301.09,52.265 300.768,52.265C300.448,52.265 300.113,52.202 299.799,52.022C299.488,51.844 299.166,51.536 298.896,50.996L298.822,50.847L298.673,50.772C298.131,50.501 297.834,50.185 297.679,49.875C297.523,49.564 297.487,49.211 297.551,48.828C297.682,48.04 298.226,47.202 298.803,46.626L298.86,46.569L298.896,46.496L300.133,44.023L300.412,43.465L299.807,43.314L295.239,42.172L295.239,38.852L295.239,38.645L295.092,38.498L293.953,37.359L292.75,32.547L292.746,32.528L292.74,32.51C292.17,30.801 292.447,28.76 293.044,27.119C293.341,26.303 293.707,25.614 294.058,25.139C294.235,24.901 294.397,24.731 294.533,24.626C294.664,24.524 294.731,24.512 294.738,24.511L294.739,24.511C295.27,24.511 295.635,24.642 295.891,24.813C296.151,24.987 296.331,25.221 296.456,25.471C296.582,25.723 296.647,25.981 296.68,26.18C296.697,26.278 296.705,26.359 296.709,26.414C296.711,26.441 296.712,26.461 296.712,26.473L296.712,26.486Z" style="fill:none;stroke:rgb(251,251,242);stroke-opacity:0.74902;stroke-width:1px;"/>
    </g>
    <g transform="matrix(1,0,0,1,-290.367,-8.33193)">
        <path d="M298.449,16.59L298.449,20.3C300.923,22.774 305.87,21.537 305.87,19.064L304.633,16.59L307.106,17.827L309.58,17.827C308.343,19.064 307.106,19.064 307.106,21.537L307.106,26.484L310.817,27.721L309.58,31.431L312.053,36.378L312.053,38.852L310.817,36.378C309.58,36.378 308.343,38.852 309.58,41.325C312.053,43.799 313.29,46.272 310.817,48.746C308.343,52.456 303.396,51.219 303.396,51.219C303.396,49.983 305.87,49.983 305.87,47.509L303.396,46.272C303.396,46.272 303.396,43.799 304.633,45.036C305.87,45.036 308.343,46.272 308.343,43.799C309.58,41.325 307.106,36.378 303.396,37.615L299.686,42.562L298.449,42.562L300.923,38.852L298.449,37.615C298.449,36.378 298.449,35.142 299.686,36.378L305.87,35.142C307.106,35.142 308.343,33.905 307.106,30.195C307.106,27.721 303.396,26.484 302.159,27.721L299.686,31.431L298.449,28.958L295.976,27.721L295.976,26.484L295.976,25.248L297.212,25.248L297.212,26.484L298.449,26.484L299.686,22.774L297.212,20.3C295.976,17.827 298.449,16.59 298.449,16.59Z" style="fill:rgb(200,136,84);fill-rule:nonzero;"/>
    </g>
    <g transform="matrix(1,0,0,1,-290.367,-8.33193)">
        <path d="M304.265,50.858C304.213,50.852 304.163,50.846 304.115,50.839C304.117,50.838 304.119,50.836 304.12,50.834C304.213,50.75 304.328,50.663 304.47,50.561C304.51,50.532 304.554,50.501 304.599,50.469C304.705,50.394 304.821,50.312 304.933,50.228C305.261,49.982 305.626,49.668 305.906,49.225C306.19,48.775 306.37,48.218 306.37,47.509L306.37,47.2L306.093,47.062L303.912,45.971C303.912,45.964 303.913,45.957 303.913,45.951C303.931,45.752 303.966,45.526 304.025,45.348C304.043,45.293 304.061,45.251 304.078,45.22C304.121,45.247 304.187,45.297 304.279,45.389L304.426,45.536L304.633,45.536C304.876,45.536 305.194,45.596 305.604,45.674L305.641,45.681C306.04,45.757 306.511,45.845 306.952,45.845C307.392,45.845 307.891,45.759 308.276,45.403C308.647,45.061 308.823,44.554 308.841,43.915C309.169,43.194 309.235,42.338 309.099,41.48C309.11,41.503 309.121,41.526 309.133,41.549L309.169,41.622L309.226,41.679C310.448,42.901 311.293,44.057 311.568,45.157C311.829,46.2 311.594,47.262 310.463,48.392L310.428,48.427L310.401,48.469C309.276,50.156 307.588,50.731 306.129,50.877C305.4,50.949 304.742,50.913 304.265,50.858ZM304.014,45.189C304.014,45.189 304.016,45.189 304.019,45.19C304.016,45.19 304.014,45.189 304.014,45.189ZM302.996,37.315L299.436,42.062L299.383,42.062L301.339,39.129L301.653,38.658L301.146,38.405L298.95,37.306C298.951,37.11 298.955,36.927 298.967,36.762C298.977,36.627 298.991,36.523 299.006,36.446C299.09,36.506 299.198,36.597 299.332,36.732L299.521,36.921L299.784,36.869L305.922,35.641C306.708,35.623 307.496,35.204 307.88,34.245C308.249,33.323 308.215,31.972 307.605,30.11C307.564,28.64 306.452,27.604 305.294,27.107C304.693,26.85 304.04,26.716 303.436,26.738C302.837,26.76 302.234,26.94 301.806,27.367L301.771,27.402L301.743,27.444L299.748,30.437L298.896,28.734L298.822,28.585L298.673,28.511L296.476,27.412L296.476,26.484L296.476,25.748L296.712,25.748L296.712,26.984L298.809,26.984L298.923,26.642L300.16,22.932L300.258,22.639L300.039,22.42L298.952,21.333C300.245,22.138 301.839,22.297 303.185,22.028C304.021,21.86 304.8,21.521 305.381,21.03C305.965,20.535 306.37,19.865 306.37,19.064L306.37,18.946L306.317,18.84L305.751,17.708L306.883,18.274L306.988,18.327L308.172,18.327C307.953,18.489 307.727,18.663 307.526,18.865C306.949,19.442 306.606,20.198 306.606,21.537L306.606,26.845L306.948,26.959L310.184,28.037L309.106,31.273L309.04,31.47L309.133,31.655L311.553,36.496L311.553,36.734L311.264,36.155L311.126,35.878L310.817,35.878C310.336,35.878 309.907,36.117 309.574,36.45C309.239,36.785 308.971,37.243 308.796,37.766C308.59,38.385 308.508,39.115 308.614,39.889C308.478,39.592 308.319,39.306 308.141,39.038C307.132,37.526 305.374,36.429 303.238,37.141L303.09,37.19L302.996,37.315ZM297.949,20.33L297.625,20.006C297.385,19.498 297.337,19.079 297.38,18.739C297.425,18.38 297.575,18.074 297.767,17.818C297.825,17.74 297.886,17.668 297.949,17.601L297.949,20.33Z" style="fill:none;stroke:rgb(251,251,242);stroke-opacity:0.74902;stroke-width:1px;"/>
    </g>
    <g transform="matrix(1,0,0,1,-290.367,-8.33193)">
        <path d="M307.106,30.195L307.106,33.905C304.633,36.378 302.159,36.378 300.923,36.378L298.449,36.378L298.449,37.615L299.686,40.089C299.686,41.325 298.449,42.562 295.976,42.562L293.502,40.089L294.739,38.852L295.976,41.325L298.449,38.852L295.976,37.615C294.739,36.378 295.976,33.905 297.212,33.905L304.633,33.905L307.106,30.195ZM294.739,25.248L295.976,26.484L295.976,27.721L298.449,28.958C299.686,30.195 299.686,31.431 297.212,32.668L293.502,32.668C293.502,32.668 297.212,32.668 297.212,30.195L294.739,28.958L294.739,26.484L294.739,25.248ZM307.106,38.852C307.106,38.852 309.58,40.089 308.343,42.562C308.343,45.036 307.106,45.036 305.87,45.036L303.396,45.036L303.396,46.272L305.87,47.509C307.106,48.746 304.633,49.983 303.396,51.219L302.159,52.456L298.449,51.219L297.212,48.746C297.212,48.746 297.212,51.219 299.686,51.219C302.159,51.219 304.633,48.746 303.396,47.509L302.159,46.272C300.923,45.036 300.923,43.799 303.396,42.562L307.106,42.562L307.106,38.852ZM299.686,15.353L298.449,17.827C298.449,20.3 300.923,21.537 303.396,20.3C304.633,20.3 305.87,19.064 304.633,17.827L304.633,16.59L308.343,17.827L312.053,14.117L312.053,11.643L310.817,15.353L308.343,14.117C308.343,14.117 309.58,16.59 307.106,15.353L303.396,14.117L303.396,17.827L299.686,17.827L299.686,15.353ZM303.396,52.456L302.159,53.693L308.343,56.167C312.053,56.167 313.29,56.167 312.053,53.693L312.053,51.219L314.527,49.983L310.817,49.983L310.817,53.693L303.396,53.693L303.396,52.456ZM309.58,36.378L309.58,40.089L312.053,45.036L312.053,47.509L314.527,48.746L313.29,46.272C313.29,46.272 314.527,45.036 312.053,42.562L309.58,36.378ZM312.053,26.484C312.053,26.484 309.58,28.958 310.817,31.431C310.817,33.905 312.053,35.142 313.29,35.142L314.527,35.142L314.527,33.905C314.527,33.905 312.053,33.905 312.053,31.431L312.053,26.484ZM307.106,19.064L307.106,25.248C307.106,27.721 309.58,27.721 310.817,26.484C313.29,26.484 313.29,24.011 312.053,24.011L310.817,24.011L308.343,24.011L307.106,19.064Z" style="fill:rgb(216,154,99);fill-rule:nonzero;"/>
    </g>
    <g transform="matrix(1,0,0,1,-290.367,-8.33193)">
        <path d="M295.387,41.267L294.209,40.089L294.602,39.696L295.387,41.267ZM296.18,42.059L296.064,41.944L296.329,41.679L298.724,39.284L299.181,40.197C299.111,40.995 298.27,41.998 296.18,42.059ZM298.155,38.146L296.278,37.207C295.904,36.783 295.872,36.127 296.131,35.482C296.261,35.155 296.454,34.872 296.664,34.677C296.878,34.478 297.071,34.405 297.212,34.405L304.9,34.405L305.049,34.182L306.606,31.846L306.606,33.695C304.33,35.878 302.1,35.878 300.926,35.878L300.923,35.878L298.449,35.878L297.949,35.878L297.949,37.733L298.002,37.839L298.155,38.146ZM296.774,32.168C297.308,31.734 297.712,31.104 297.712,30.195L297.712,29.886L297.436,29.747L295.239,28.649L295.239,26.484L295.239,26.455L295.476,26.691L295.476,28.03L295.752,28.168L298.151,29.368C298.686,29.921 298.823,30.347 298.737,30.692C298.642,31.073 298.225,31.584 297.093,32.168L296.774,32.168ZM307.896,42.339L307.843,42.444L307.843,42.562C307.843,43.733 307.55,44.139 307.293,44.31C306.979,44.519 306.531,44.536 305.87,44.536L303.396,44.536L302.896,44.536L302.896,46.302L302.513,45.919C301.932,45.338 301.782,44.894 301.871,44.539C301.967,44.157 302.383,43.646 303.516,43.062L307.606,43.062L307.606,42.562L307.606,39.863C307.669,39.93 307.73,40.002 307.789,40.079C307.981,40.336 308.131,40.642 308.175,41.001C308.22,41.356 308.166,41.798 307.896,42.339ZM303.75,47.156L303.455,46.861L305.567,47.917C305.72,48.09 305.72,48.211 305.694,48.315C305.651,48.487 305.501,48.716 305.207,49.011C304.921,49.297 304.558,49.588 304.166,49.901L304.153,49.912C303.776,50.214 303.371,50.537 303.043,50.866L302.024,51.884L300.97,51.533C301.878,51.272 302.702,50.766 303.286,50.182C303.712,49.755 304.047,49.252 304.172,48.726C304.303,48.178 304.199,47.605 303.75,47.156ZM309.152,15.199C309.152,15.159 309.151,15.118 309.148,15.078L309.973,15.49L308.208,17.255L304.791,16.116L304.133,15.896L304.133,18.034L304.279,18.18C304.53,18.431 304.619,18.644 304.64,18.801C304.66,18.956 304.622,19.106 304.526,19.25C304.321,19.558 303.869,19.8 303.396,19.8L303.278,19.8L303.172,19.853C302.054,20.413 300.984,20.391 300.219,20.008C299.493,19.645 298.987,18.934 298.951,17.941L299.186,17.471L299.186,18.327L303.896,18.327L303.896,17.827L303.896,14.81L306.915,15.817C307.23,15.972 307.506,16.08 307.748,16.14C307.994,16.202 308.239,16.223 308.464,16.167C308.709,16.106 308.901,15.96 309.019,15.754C309.126,15.565 309.152,15.362 309.152,15.199ZM311.553,53.693L311.553,53.811L311.606,53.917C311.911,54.526 312.017,54.9 312.017,55.123C312.017,55.22 311.997,55.267 311.98,55.293C311.963,55.321 311.924,55.363 311.83,55.41C311.619,55.516 311.245,55.59 310.631,55.629C310.052,55.665 309.329,55.666 308.439,55.667L304.756,54.193L311.317,54.193L311.317,53.693L311.317,50.483L312.409,50.483L311.83,50.772L311.553,50.91L311.553,53.693ZM312.553,45.036L312.553,44.918L312.501,44.812L310.08,39.971L310.08,38.975L311.589,42.748L311.627,42.843L311.7,42.916C312.882,44.098 313.099,44.906 313.099,45.345C313.099,45.568 313.044,45.723 312.998,45.817C312.974,45.864 312.952,45.897 312.938,45.914C312.934,45.92 312.931,45.924 312.929,45.926L312.682,46.174L312.843,46.496L313.409,47.628L312.553,47.2L312.553,45.036ZM311.418,28.254C311.462,28.166 311.507,28.082 311.553,28.001L311.553,31.431C311.553,32.137 311.731,32.7 312.024,33.139C312.314,33.574 312.698,33.859 313.067,34.043C313.419,34.219 313.766,34.308 314.027,34.354L314.027,34.642L313.29,34.642C312.453,34.642 311.317,33.772 311.317,31.431L311.317,31.313L311.264,31.208C310.746,30.171 310.989,29.113 311.418,28.254ZM307.606,25.248L307.606,23.125L307.858,24.132L307.953,24.511L312.053,24.511C312.173,24.511 312.246,24.56 312.298,24.649C312.358,24.753 312.392,24.925 312.341,25.126C312.252,25.484 311.866,25.984 310.817,25.984L310.61,25.984L310.463,26.131C309.948,26.646 309.185,26.885 308.596,26.767C308.313,26.71 308.078,26.575 307.909,26.354C307.739,26.132 307.606,25.783 307.606,25.248Z" style="fill:none;stroke:rgb(251,251,242);stroke-opacity:0.74902;stroke-width:1px;"/>
    </g>
    <g transform="matrix(1,0,0,1,-290.367,-8.33193)">
        <path d="M314.527,20.3L315.764,21.537L317,24.011C318.237,24.011 320.711,22.774 318.237,20.3L315.764,11.643C315.764,10.406 318.237,9.17 319.474,10.406C321.947,10.406 321.947,11.643 321.947,12.88L324.421,11.643C324.421,11.643 326.894,15.353 329.368,15.353C330.605,15.353 333.078,17.827 331.842,20.3L328.131,24.011L330.605,26.484L333.078,24.011C335.552,24.011 336.789,28.958 336.789,32.668L335.552,37.615L334.315,38.852L334.315,42.562L329.368,43.799L330.605,46.272C331.842,47.509 333.078,49.983 330.605,51.219C328.131,53.693 326.894,52.456 326.894,52.456C326.894,53.693 328.131,54.93 323.184,56.167C318.237,57.403 317,56.167 315.764,54.93L317,51.219L314.527,51.219L314.527,20.3Z" style="fill:rgb(231,166,105);fill-rule:nonzero;"/>
    </g>
    <g transform="matrix(1,0,0,1,-290.367,-8.33193)">
        <path d="M318.22,55.995C317.387,55.757 316.87,55.317 316.336,54.794L317.475,51.378L317.694,50.719L317,50.719L315.027,50.719L315.027,21.508L315.353,21.833L316.553,24.234L316.691,24.511L317,24.511C317.383,24.511 317.836,24.417 318.257,24.24C318.678,24.063 319.109,23.784 319.41,23.383C319.722,22.967 319.879,22.436 319.751,21.822C319.633,21.256 319.283,20.663 318.683,20.041L316.267,11.586C316.285,11.452 316.363,11.281 316.536,11.094C316.731,10.885 317.014,10.692 317.341,10.561C318.014,10.292 318.699,10.339 319.12,10.76L319.267,10.906L319.474,10.906C320.645,10.906 321.051,11.199 321.222,11.457C321.431,11.77 321.447,12.218 321.447,12.88L321.447,13.689L322.171,13.327L324.262,12.281C324.317,12.355 324.381,12.439 324.451,12.53C324.731,12.889 325.131,13.369 325.613,13.852C326.094,14.333 326.668,14.826 327.294,15.202C327.918,15.577 328.627,15.853 329.368,15.853C329.531,15.853 329.816,15.945 330.163,16.188C330.498,16.422 330.841,16.764 331.116,17.177C331.655,17.984 331.899,18.999 331.428,20.007L327.778,23.657L327.424,24.011L327.778,24.364L330.251,26.838L330.605,27.191L330.958,26.838L333.271,24.525C333.635,24.579 333.986,24.79 334.328,25.174C334.734,25.631 335.093,26.3 335.391,27.119C335.979,28.735 336.282,30.811 336.288,32.607L335.1,37.359L333.961,38.498L333.815,38.645L333.815,42.172L329.247,43.314L328.642,43.465L328.921,44.023L330.158,46.496L330.194,46.569L330.251,46.626C330.827,47.202 331.372,48.04 331.503,48.828C331.567,49.211 331.531,49.564 331.375,49.875C331.22,50.185 330.923,50.501 330.381,50.772L330.309,50.809L330.251,50.866C329.069,52.048 328.261,52.265 327.822,52.265C327.599,52.265 327.443,52.21 327.35,52.164C327.302,52.14 327.27,52.118 327.252,52.105C327.247,52.1 327.243,52.097 327.241,52.095L326.394,51.249L326.394,52.456C326.394,52.65 326.419,52.835 326.444,52.997C326.454,53.06 326.463,53.117 326.472,53.17C326.488,53.266 326.503,53.352 326.514,53.446C326.548,53.716 326.537,53.908 326.447,54.088C326.356,54.271 326.143,54.517 325.616,54.798C325.087,55.08 324.281,55.377 323.063,55.681C320.627,56.29 319.181,56.269 318.22,55.995Z" style="fill:none;stroke:rgb(251,251,242);stroke-opacity:0.74902;stroke-width:1px;"/>
    </g>
    <g transform="matrix(1,0,0,1,-290.367,-8.33193)">
        <path d="M330.605,16.59C330.605,16.59 331.842,17.827 329.368,20.3C326.894,22.774 323.184,21.537 323.184,19.064L324.421,16.59L320.711,17.827L319.474,17.827C319.474,19.064 321.947,19.064 321.947,21.537C323.184,22.774 323.184,25.248 320.711,26.484L318.237,27.721L318.237,31.431L315.764,36.378L317,38.852L318.237,36.378C319.474,36.378 320.711,38.852 319.474,41.325C317,43.799 315.764,46.272 318.237,48.746C320.711,52.456 324.421,51.219 324.421,51.219L321.947,47.509L325.658,46.272C325.658,46.272 325.658,43.799 324.421,45.036C323.184,45.036 320.711,46.272 319.474,43.799C319.474,41.325 321.947,36.378 324.421,37.615C328.131,38.852 328.131,41.325 328.131,42.562L329.368,42.562L328.131,38.852L330.605,37.615C330.605,36.378 330.605,35.142 329.368,36.378L323.184,35.142C321.947,35.142 320.711,33.905 320.711,30.195C321.947,27.721 325.658,26.484 326.894,27.721L329.368,31.431L329.368,28.958L333.078,27.721L333.078,26.484L333.078,25.248L331.842,25.248L331.842,26.484L330.605,26.484C329.368,25.248 328.131,24.011 329.368,22.774L331.842,20.3C333.078,17.827 330.605,16.59 330.605,16.59Z" style="fill:rgb(200,136,84);fill-rule:nonzero;"/>
    </g>
    <g transform="matrix(1,0,0,1,-290.367,-8.33193)">
        <path d="M331.377,17.946C331.525,18.175 331.636,18.438 331.674,18.739C331.716,19.079 331.669,19.498 331.429,20.006L329.014,22.42C328.644,22.791 328.425,23.198 328.369,23.64C328.315,24.076 328.428,24.486 328.612,24.853C328.957,25.544 329.624,26.21 330.213,26.799L330.251,26.838L330.398,26.984L332.342,26.984L332.342,26.484L332.342,25.748L332.578,25.748L332.578,27.361L329.21,28.483L328.868,28.597L328.868,29.78L327.311,27.444L327.283,27.402L327.248,27.367C326.819,26.938 326.214,26.76 325.598,26.738C324.977,26.716 324.292,26.849 323.627,27.098C322.304,27.594 320.952,28.594 320.263,29.971L320.211,30.077L320.211,30.195C320.211,32.093 320.525,33.434 321.055,34.317C321.587,35.204 322.338,35.623 323.132,35.641L329.27,36.869L329.532,36.921L329.722,36.732C329.856,36.597 329.964,36.506 330.048,36.446C330.063,36.523 330.077,36.627 330.087,36.762C330.099,36.927 330.103,37.11 330.104,37.306L327.908,38.405L327.52,38.599L327.657,39.01L327.733,39.239C327.135,38.419 326.162,37.674 324.611,37.152C323.826,36.773 323.042,36.889 322.358,37.277C321.684,37.659 321.09,38.309 320.604,39.038C320.564,39.098 320.525,39.158 320.486,39.219C320.487,38.695 320.403,38.203 320.257,37.766C320.083,37.243 319.815,36.785 319.48,36.45C319.147,36.117 318.718,35.878 318.237,35.878L317.928,35.878L317.79,36.155L317,37.734L316.323,36.378L318.684,31.655L318.737,31.549L318.737,31.431L318.737,28.03L320.934,26.931C322.299,26.249 323.03,25.194 323.214,24.093C323.382,23.08 323.08,22.062 322.442,21.335C322.412,20.721 322.241,20.228 321.984,19.821C321.704,19.378 321.339,19.064 321.011,18.818C320.899,18.734 320.783,18.652 320.677,18.578C320.632,18.545 320.588,18.515 320.548,18.486C320.469,18.429 320.398,18.377 320.335,18.327L320.792,18.327L320.869,18.301L323.434,17.446L322.737,18.84L322.684,18.946L322.684,19.064C322.684,20.59 323.832,21.674 325.227,22.022C326.635,22.374 328.361,22.015 329.722,20.654C330.793,19.582 331.252,18.679 331.377,17.946ZM317.485,45.157C317.707,44.272 318.297,43.35 319.157,42.387C319.038,42.893 318.974,43.375 318.974,43.799L318.974,43.917L319.027,44.023C319.375,44.72 319.829,45.188 320.355,45.475C320.876,45.759 321.43,45.845 321.947,45.845C322.461,45.845 322.964,45.76 323.39,45.682C323.43,45.675 323.469,45.668 323.507,45.661C323.898,45.589 324.191,45.536 324.421,45.536L324.628,45.536L324.775,45.389C324.867,45.297 324.933,45.247 324.976,45.22C324.992,45.251 325.01,45.293 325.029,45.348C325.085,45.517 325.119,45.728 325.137,45.919L321.789,47.035L321.168,47.242L321.531,47.786L323.593,50.879C323.254,50.92 322.813,50.94 322.319,50.878C321.207,50.739 319.799,50.188 318.653,48.469L318.626,48.427L318.591,48.392C317.46,47.262 317.225,46.2 317.485,45.157ZM325.04,45.189C325.04,45.189 325.038,45.19 325.035,45.19C325.038,45.189 325.04,45.189 325.04,45.189ZM328.674,42.062L328.625,42.062C328.623,42.007 328.621,41.95 328.618,41.892L328.674,42.062Z" style="fill:none;stroke:rgb(251,251,242);stroke-opacity:0.74902;stroke-width:1px;"/>
    </g>
    <g transform="matrix(1,0,0,1,-290.367,-8.33193)">
        <path d="M321.947,30.195L321.947,33.905C323.184,36.378 325.658,36.378 328.131,36.378L330.605,36.378L330.605,37.615L329.368,40.089C329.368,41.325 329.368,42.562 331.842,42.562C334.315,42.562 335.552,40.089 334.315,40.089L334.315,38.852L333.078,41.325L330.605,38.852L333.078,37.615L331.842,33.905L324.421,33.905L321.947,30.195ZM334.315,25.248L333.078,26.484L333.078,27.721L330.605,28.958L330.605,32.668L334.315,32.668C334.315,32.668 331.842,32.668 331.842,30.195L334.315,28.958L333.078,26.484L334.315,25.248ZM321.947,38.852C321.947,38.852 319.474,40.089 319.474,42.562C320.711,45.036 321.947,45.036 323.184,45.036L325.658,45.036L325.658,46.272L323.184,47.509C321.947,48.746 324.421,49.983 325.658,51.219L326.894,52.456L330.605,51.219L331.842,48.746C331.842,48.746 330.605,51.219 328.131,51.219C325.658,51.219 324.421,48.746 325.658,47.509L326.894,46.272L325.658,42.562L320.711,42.562L321.947,38.852ZM328.131,15.353C328.131,15.353 330.605,15.353 330.605,17.827C330.605,20.3 328.131,21.537 325.658,20.3L323.184,17.827L324.421,16.59L320.711,17.827L317,14.117L317,11.643L318.237,15.353L320.711,14.117C320.711,14.117 319.474,16.59 321.947,15.353L325.658,14.117L324.421,17.827L329.368,17.827C330.605,16.59 328.131,15.353 328.131,15.353ZM325.658,52.456L326.894,53.693L319.474,56.167C317,56.167 315.764,56.167 315.764,53.693L317,51.219L314.527,49.983L318.237,49.983L318.237,53.693L325.658,53.693L325.658,52.456ZM318.237,36.378C318.237,36.378 320.711,37.615 319.474,40.089L315.764,45.036L315.764,47.509L314.527,48.746L315.764,46.272L315.764,42.562C318.237,38.852 319.474,38.852 318.237,36.378ZM317,26.484C317,26.484 319.474,28.958 318.237,31.431C318.237,33.905 315.764,35.142 315.764,35.142L314.527,35.142L314.527,33.905L317,31.431L317,26.484Z" style="fill:rgb(216,154,99);fill-rule:nonzero;"/>
    </g>
    <g transform="matrix(1,0,0,1,-290.367,-8.33193)">
        <path d="M333.53,41.54L334.006,40.589L334.293,40.589C334.274,40.678 334.216,40.831 334.07,41.025C333.938,41.201 333.756,41.381 333.53,41.54ZM334.37,40.594C334.37,40.594 334.37,40.594 334.369,40.593L334.37,40.594ZM332.725,41.679L332.913,41.868C332.6,41.987 332.241,42.062 331.842,42.062C330.671,42.062 330.265,41.769 330.093,41.512C329.897,41.217 329.871,40.804 329.868,40.206L330.329,39.284L332.725,41.679ZM332.467,37.362L330.898,38.146L331.052,37.839L331.105,37.733L331.105,37.615L331.105,36.378L331.105,35.878L330.605,35.878L328.131,35.878C326.877,35.878 325.715,35.875 324.713,35.588C323.775,35.321 322.992,34.808 322.447,33.783L322.447,31.846L324.005,34.182L324.153,34.405L331.481,34.405L332.467,37.362ZM331.812,31.902C331.876,31.998 331.944,32.086 332.016,32.168L331.105,32.168L331.105,29.267L333.302,28.168L333.349,28.145L333.644,28.734L331.618,29.747L331.342,29.886L331.342,30.195C331.342,30.9 331.519,31.463 331.812,31.902ZM319.046,39.826L316.264,43.536L316.264,42.714C316.836,41.866 317.339,41.219 317.759,40.689C317.81,40.626 317.86,40.563 317.908,40.502C318.277,40.038 318.597,39.637 318.821,39.264C319.035,38.907 319.179,38.548 319.214,38.144C319.258,38.264 319.289,38.392 319.306,38.527C319.35,38.874 319.299,39.303 319.046,39.826ZM326.515,51.37C326.847,51.526 327.218,51.636 327.62,51.687L327.03,51.884L326.515,51.37ZM325.304,47.156C324.5,47.96 324.525,49.117 325.037,50.021C324.991,49.984 324.946,49.948 324.901,49.912L324.888,49.901C324.496,49.588 324.133,49.297 323.847,49.011C323.553,48.716 323.403,48.487 323.36,48.315C323.334,48.211 323.334,48.09 323.487,47.917L325.599,46.861L325.304,47.156ZM326.322,46.137L326.158,46.302L326.158,46.272L326.158,45.643L326.322,46.137ZM325.297,43.062L325.789,44.536L325.658,44.536L323.184,44.536C322.553,44.536 322.051,44.528 321.553,44.279C321.179,44.092 320.766,43.745 320.328,43.062L325.297,43.062ZM320.236,42.404L320.128,42.729C320.078,42.639 320.027,42.545 319.976,42.447C320.01,41.513 320.455,40.78 320.956,40.245L320.236,42.404ZM317.224,50.772L316.645,50.483L317.737,50.483L317.737,54.193L323.813,54.193L319.393,55.667C318.804,55.666 318.312,55.664 317.892,55.63C317.452,55.593 317.14,55.523 316.915,55.41C316.708,55.307 316.559,55.16 316.452,54.92C316.346,54.68 316.274,54.329 316.265,53.809L317.448,51.443L317.671,50.996L317.224,50.772ZM329.722,18.18C329.892,18.01 330.018,17.829 330.099,17.641C330.103,17.701 330.105,17.763 330.105,17.827C330.105,18.88 329.589,19.631 328.835,20.008C328.086,20.382 327.045,20.412 325.952,19.888L324.391,18.327L329.575,18.327L329.722,18.18ZM323.893,17.829L323.891,17.827L323.895,17.823L323.893,17.829ZM324.867,14.907L324.394,16.328L324.263,16.116L320.846,17.255L319.081,15.49L319.906,15.078C319.903,15.118 319.902,15.159 319.902,15.199C319.902,15.362 319.927,15.565 320.035,15.754C320.153,15.96 320.345,16.106 320.589,16.167C320.815,16.223 321.059,16.202 321.305,16.14C321.547,16.08 321.823,15.972 322.139,15.817L324.867,14.907ZM317.79,31.208L317.737,31.313L317.737,31.431C317.737,32.489 317.211,33.297 316.647,33.86C316.366,34.141 316.084,34.353 315.873,34.494C315.775,34.559 315.694,34.608 315.636,34.642L315.027,34.642L315.027,34.112L317.354,31.785L317.5,31.638L317.5,31.431L317.5,28.001C317.546,28.082 317.592,28.166 317.635,28.254C318.065,29.113 318.308,30.171 317.79,31.208Z" style="fill:none;stroke:rgb(251,251,242);stroke-opacity:0.74902;stroke-width:1px;"/>
    </g>
    <g transform="matrix(1,0,0,1,-290.367,-8.33193)">
        <path d="M320.711,19.064C320.711,19.064 323.184,21.537 321.947,25.248C320.711,27.721 318.237,27.721 317,26.484L315.764,24.011L320.711,24.011L320.711,19.064Z" style="fill:rgb(216,154,99);fill-rule:nonzero;"/>
    </g>
    <g transform="matrix(1,0,0,1,-290.367,-8.33193)">
        <path d="M317.409,26.184L316.573,24.511L321.211,24.511L321.211,24.011L321.211,20.694C321.252,20.779 321.293,20.868 321.333,20.961C321.756,21.948 322.041,23.354 321.484,25.055C320.931,26.142 320.139,26.64 319.392,26.764C318.65,26.888 317.912,26.652 317.409,26.184Z" style="fill:none;stroke:rgb(251,251,242);stroke-opacity:0.74902;stroke-width:1px;"/>
    </g>
</svg>
