<?xml version="1.0" encoding="UTF-8" standalone="no"?>
<!DOCTYPE svg PUBLIC "-//W3C//DTD SVG 1.1//EN" "http://www.w3.org/Graphics/SVG/1.1/DTD/svg11.dtd">
<svg width="100%" height="100%" viewBox="0 0 130 239" version="1.1" xmlns="http://www.w3.org/2000/svg" xmlns:xlink="http://www.w3.org/1999/xlink" xml:space="preserve" xmlns:serif="http://www.serif.com/" style="fill-rule:evenodd;clip-rule:evenodd;stroke-linejoin:round;stroke-miterlimit:1.41421;">
    <g transform="matrix(1,0,0,1,-85.9022,0)">
        <path d="M215,144C212,64 160,0 150,0C141,0 89,64 86,144C83,224 150,239 150,239C150,239 218,224 215,144Z" style="fill:rgb(169,123,84);fill-rule:nonzero;"/>
    </g>
    <g transform="matrix(1,0,0,1,-85.9022,0)">
        <path d="M149,235C141,235 131,230 114,215C94,197 86,159 90,126C94,92 109,58 109,58C97,90 88,182 146,190L155,190C204,190 212,134 212,134C212,134 216,162 203,190C193.967,210.799 176.504,226.807 155,234L149,235Z" style="fill:rgb(158,112,75);fill-rule:nonzero;"/>
    </g>
    <g transform="matrix(1,0,0,1,-85.9022,0)">
        <path d="M132,39C132,39 128,86 130,92C133,98 138,104 138,107L137,178C137,181 150,190 150,199C151,207 149,236 149,236L140,233C140,233 145,205 144,197C142,188 133,185 133,177C132,170 134,108 134,106C133,103 126,98 126,89L132,39ZM169,67L169,112C170,121 181,126 183,140C185,154 180,194 178,198C176,202 166,206 163,212L159,234L169,229L171,212C172,210 181,206 183,197C185,188 188,147 187,138C186,128 172,116 172,111L169,67ZM108,121L108,146C107,152 103,167 103,173C104,179 107,201 113,206C120,212 121,211 121,214L123,224L114,217L112,210C111,209 100,194 100,178C99,162 103,153 105,144L108,121Z" style="fill:rgb(151,103,67);fill-rule:nonzero;"/>
    </g>
    <g transform="matrix(1,0,0,1,-85.9022,0)">
        <path d="M142,74L141,97L137,106L135,102C135,102 137,100 139,92L142,74ZM185,81L183,101C183,111 177,123 177,123L178,125C178,125 185,118 185,106L185,81ZM160,131C160,131 160,154 165,163C171,173 184,172 184,172L182,179C182,179 166,178 162,167C159,156 160,131 160,131ZM120,127C120,127 119,144 122,153C125,163 134,165 134,165L134,159C134,159 125,157 123,150L120,127ZM202,143C202,143 201,174 197,186C194,198 181,199 181,199L178,206C178,206 196,200 199,189C202,178 202,143 202,143ZM125,188C125,188 124,201 129,212C133,223 143,225 143,225L144,219C144,219 135,216 131,211C128,205 125,188 125,188ZM117,168C117,168 118,182 115,190C113,199 108,201 108,201L105,195C105,195 110,195 112,188C115,182 117,168 117,168ZM96,106C96,106 91,132 92,148C94,164 101,171 101,171L102,164C102,164 96,156 94,143C93,130 96,106 96,106ZM156,93C156,93 156,126 153,140C149,155 136,155 136,155L136,149C136,149 148,147 150,138C153,128 156,93 156,93ZM199,110C199,110 199,133 197,139C196,146 185,154 185,154L185,160C185,160 198,152 199,142L199,110ZM154,157L154,182C155,188 157,191 157,196C157,202 149,208 149,208L149,212C149,212 160,207 160,197C159,188 154,183 154,177L154,157Z" style="fill:rgb(151,103,67);fill-rule:nonzero;"/>
    </g>
</svg>
