<?xml version="1.0" encoding="UTF-8" standalone="no"?>
<!DOCTYPE svg PUBLIC "-//W3C//DTD SVG 1.1//EN" "http://www.w3.org/Graphics/SVG/1.1/DTD/svg11.dtd">
<svg width="100%" height="100%" viewBox="0 0 109 240" version="1.1" xmlns="http://www.w3.org/2000/svg" xmlns:xlink="http://www.w3.org/1999/xlink" xml:space="preserve" xmlns:serif="http://www.serif.com/" style="fill-rule:evenodd;clip-rule:evenodd;stroke-linejoin:round;stroke-miterlimit:1.41421;">
    <g transform="matrix(1,0,0,1,-100,0.08)">
        <path d="M201,66C200,64 198,59 194,57C189,54 188,54 183,49C177,44 178,41 171,37C165,33 159,34 153,29C146,24 148,18 149,11C151,5 147,3 147,2C134,-2 127,1 127,1C127,1 117,7 111,23C107,33 105,50 105,69C105,70 105,77 109,79C114,81 124,86 125,94C126,102 124,105 126,108C128,111 134,122 133,127C131,131 122,132 123,140C125,149 130,162 125,173C121,184 117,186 117,191C116,196 110,205 108,207L100,210C102,223 107,236 127,239C155,243 202,198 208,135C210,109 207,86 201,66Z" style="fill:rgb(238,208,163);fill-rule:nonzero;"/>
    </g>
    <g transform="matrix(1,0,0,1,-100,0.08)">
        <path d="M108,207C110,205 116,196 117,191C117,186 121,184 125,173C130,162 125,149 123,140C122,132 131,131 133,127C134,122 128,111 126,108C124,105 126,102 125,94C124,86 114,81 109,79C105,77 105,70 105,69C104,81 105,94 106,107C108,139 101,184 100,197L100,210L108,207ZM149,11C148,18 146,24 153,29C159,34 165,33 171,37C178,41 177,44 183,49C188,54 189,54 194,57C198,59 200,64 201,66C192,39 178,20 164,11L147,2C147,3 151,5 149,11Z" style="fill:rgb(139,108,90);fill-rule:nonzero;"/>
    </g>
    <g transform="matrix(1,0,0,1,-100,0.08)">
        <path d="M130,237L126,237C113,236 104,224 102,210L108,207C110,205 116,196 117,191C117,186 120,185 124,176C129,183 138,188 152,188L154,189C189,189 207,132 207,110C207,110 209,164 183,198C160,230 145,237 130,237Z" style="fill:rgb(231,194,147);fill-rule:nonzero;"/>
    </g>
    <g transform="matrix(1,0,0,1,-100,0.08)">
        <path d="M102,210L102,200L108,130C109,112 106,83 106,83C106,83 114,114 114,135C115,148 115,165 124,176C120,185 117,186 117,191C116,196 110,205 108,207L102,210Z" style="fill:rgb(135,102,81);fill-rule:nonzero;"/>
    </g>
    <g transform="matrix(1,0,0,1,-100,0.08)">
        <path d="M182,142C175,142 171,121 172,104C173,84 161,44 147,31C133,19 127,5 140,5L141,5L150,9L149,11L148,19C148,23 149,26 153,29C159,34 165,33 171,37C178,41 177,44 183,49C198,83 198,125 188,138C186,141 184,142 182,142Z" style="fill:rgb(240,213,171);fill-rule:nonzero;"/>
    </g>
    <g transform="matrix(1,0,0,1,-100,0.08)">
        <path d="M183,49C177,44 178,41 171,37C165,33 159,34 153,29C149,26 148,23 148,19L149,11L150,9C159,15 173,27 183,49Z" style="fill:rgb(151,122,106);fill-rule:nonzero;"/>
    </g>
</svg>
