<?xml version="1.0" encoding="UTF-8" standalone="no"?>
<!DOCTYPE svg PUBLIC "-//W3C//DTD SVG 1.1//EN" "http://www.w3.org/Graphics/SVG/1.1/DTD/svg11.dtd">
<svg width="100%" height="100%" viewBox="0 0 169 165" version="1.1" xmlns="http://www.w3.org/2000/svg" xmlns:xlink="http://www.w3.org/1999/xlink" xml:space="preserve" xmlns:serif="http://www.serif.com/" style="fill-rule:evenodd;clip-rule:evenodd;stroke-linejoin:round;stroke-miterlimit:1.41421;">
    <path d="M2,92L0,80L2,69C3,67 3,63 5,62L13,51L17,46L27,39C31,37 35,26 42,21C49,16 69,12 71,11C72,10 74,4 76,3C79,1 101,0 103,0C105,0 119,1 126,8C132,15 134,41 134,41L132,70L87,107C87,107 51,119 47,119C43,119 6,97 6,97L2,92Z" style="fill:rgb(143,102,76);fill-rule:nonzero;"/>
    <path d="M126,8C126,8 160,28 167,73C175,117 152,160 96,164C41,168 17,127 11,117C4,107 2,92 2,92L7,93L22,101C27,103 36,102 38,103L49,103L56,98C56,98 59,90 61,89L83,88L94,82C95,80 98,68 100,67L106,63L114,63L125,55L119,43L120,37L120,29L128,18L126,8Z" style="fill:rgb(116,90,73);fill-rule:nonzero;"/>
    <path d="M121,6C121,6 113,2 104,1C94,0 78,3 77,4C76,5 74,11 71,12C68,14 49,18 42,23C36,27 32,37 30,39C28,40 20,44 17,48L13,55L4,64L2,80L4,90L8,91L25,100L38,101C40,101 47,103 48,102L55,97C56,96 58,89 60,88C61,87 80,88 83,86L93,81L98,66L106,61L114,61L123,55L117,43L118,29C119,25 125,19 125,17C126,16 124,8 123,8L121,6Z" style="fill:rgb(248,229,207);fill-rule:nonzero;"/>
    <path d="M153,38C153,38 168,62 167,89C167,115 156,143 127,156C99,168 74,165 54,156C35,148 21,129 16,122C11,115 9,106 9,106C9,106 50,170 118,136C177,107 153,38 153,38Z" style="fill:rgb(102,75,60);fill-rule:nonzero;"/>
    <path d="M100,23C100,23 112,28 103,42C93,56 65,82 43,83C22,83 22,75 29,63C36,52 70,26 83,23C96,20 100,23 100,23Z" style="fill:rgb(224,205,185);fill-rule:nonzero;"/>
    <path d="M43,50C43,50 29,62 26,70C24,78 31,82 40,82C49,82 66,74 66,74C66,74 53,68 47,63C42,58 43,50 43,50Z" style="fill:rgb(208,191,175);fill-rule:nonzero;"/>
    <path d="M56,36C56,36 74,20 90,20C106,21 107,28 107,32L104,40C104,40 113,29 105,22C97,15 74,16 56,36ZM52,98L54,96L59,87L81,86L91,81L97,66L105,60L104,60L96,66L90,78L80,78L83,81L80,85L64,84L57,85L53,96L52,98Z" style="fill:rgb(255,246,235);fill-rule:nonzero;"/>
</svg>
