<?xml version="1.0" encoding="UTF-8" standalone="no"?>
<!DOCTYPE svg PUBLIC "-//W3C//DTD SVG 1.1//EN" "http://www.w3.org/Graphics/SVG/1.1/DTD/svg11.dtd">
<svg width="100%" height="100%" viewBox="0 0 178 184" version="1.1" xmlns="http://www.w3.org/2000/svg" xmlns:xlink="http://www.w3.org/1999/xlink" xml:space="preserve" xmlns:serif="http://www.serif.com/" style="fill-rule:evenodd;clip-rule:evenodd;stroke-linejoin:round;stroke-miterlimit:1.41421;">
    <g transform="matrix(1,0,0,1,-0.10524,-0.0485585)">
        <path d="M37,53C22,59 9,91 44,125C78,159 123,138 134,107C145,77 158,63 171,57L174,56C170,39 161,23 148,13C127,-2 113,3 113,3L59,25L68,33C68,33 53,46 37,53Z" style="fill:rgb(166,107,62);fill-rule:nonzero;"/>
    </g>
    <g transform="matrix(1,0,0,1,-0.10524,-0.0485585)">
        <path d="M3,107C16,155 72,201 136,177C182,160 178,110 178,84C178,75 177,65 174,56L171,57C158,63 145,77 134,107C125.587,127.68 105.381,141.274 83.055,141.274C68.393,141.274 54.323,135.411 44,125C9,91 22,59 37,53C53,46 68,33 68,33L59,25L25,39C25,39 -10,60 3,107Z" style="fill:rgb(147,90,50);fill-rule:nonzero;"/>
    </g>
    <g transform="matrix(1,0,0,1,-0.10524,-0.0485585)">
        <path d="M29,36C33,41 82,25 97,15L112,2C106,-1 83,-2 56,10L45,15C44,16 26,30 29,36Z" style="fill:rgb(191,167,143);fill-rule:nonzero;"/>
    </g>
    <g transform="matrix(1,0,0,1,-0.10524,-0.0485585)">
        <path d="M14,49C15,51 31,47 68,33C105,20 113,3 113,3L112,2L97,15C82,25 33,41 29,36C26,30 44,16 45,15C21,29 14,47 14,49Z" style="fill:rgb(162,143,126);fill-rule:nonzero;"/>
    </g>
    <g transform="matrix(1,0,0,1,-0.10524,-0.0485585)">
        <path d="M65,136L46,108C32,86 33,63 33,63C35,80 44,96 46,99L42,75L55,103L53,93L58,99L50,67L64,87L51,57L75,100L73,79L85,97L81,79C84.551,82.78 88.22,86.449 92,90L83,69L93,77L74,40L109,95L97,85L106,109L87,90C88.244,96.684 89.577,103.352 91,110L75,91L88,133L55,76L67,114L58,102L62,116L51,105L65,136ZM147,69L138,54L140,63L122,39C115,28 102,21 102,21L120,30C125,34 131,44 131,44L130,37L147,49L140,39C143.207,41.509 146.545,43.845 150,46C143.408,34.019 133.742,24.008 122,17C110.258,9.992 135,23 140,28C144,33 149,35 149,35L143,27L151,31C151,31 139,16 126,10C145.304,16.979 159.932,33.108 165,53L150,33L158,48L150,39L160,59L149,50L153,58L135,43L147,69ZM126,10L121,8L126,10Z" style="fill:rgb(188,123,69);fill-rule:nonzero;"/>
    </g>
</svg>
