<?xml version="1.0" encoding="UTF-8" standalone="no"?>
<!DOCTYPE svg PUBLIC "-//W3C//DTD SVG 1.1//EN" "http://www.w3.org/Graphics/SVG/1.1/DTD/svg11.dtd">
<svg width="100%" height="100%" viewBox="0 0 118 208" version="1.1" xmlns="http://www.w3.org/2000/svg" xmlns:xlink="http://www.w3.org/1999/xlink" xml:space="preserve" xmlns:serif="http://www.serif.com/" style="fill-rule:evenodd;clip-rule:evenodd;stroke-linejoin:round;stroke-miterlimit:1.41421;">
    <g transform="matrix(1,0,0,1,-109.453,-8.72746)">
        <path d="M173,196C174,183 177,166 184,150C191,134 194,118 195,113C197,107 196,128 192,141C187,155 182,173 180,185C179,197 179,205 193,197C206,189 220,133 220,133C223,113 226,90 227,72C227,47 222,33 217,26C217,26 211,20 206,23C202,27 202,59 197,88C192,116 177,154 173,165C170,176 167,206 162,203C158,201 167,147 179,113C190,78 195,13 195,12C193,11 190,9 185,9C180,8 177,10 176,11C176,11 180,55 171,79C158.017,118.682 148.974,159.546 144,201C142,201 136,182 144,160C151,137 163,76 166,50C169,26 168,18 164,12C161,12 156,13 148,18C137,27 124,49 114,119C106,167 110,189 115,201C115,201 124,211 122,198C121,185 125,166 132,153C138,141 148,110 148,110C148,110 145,136 140,148C135,159 127,184 130,192C133,200 141,207 145,208C148,209 148,214 148,214L153,216C154,218 159,213 164,212L165,212C165,212 172,208 173,196Z" style="fill:rgb(156,108,79);fill-rule:nonzero;"/>
    </g>
    <g transform="matrix(1,0,0,1,-109.453,-8.72746)">
        <path d="M162,203C167,206 170,176 173,165C177,154 192,116 197,88C202,59 202,27 206,23C211,20 217,26 217,26C213,21 210,19 208,18C203,17 201,28 200,28C198,28 198,22 198,18L195,12C195,13 190,78 179,113C167,147 158,201 162,203ZM166,50C163,76 151,137 144,160C136,182 142,201 144,201C146,201 147,193 148,177C148,161 163,102 171,79C180,55 176,11 176,11L174,15C172,16 167,12 167,12L164,12C168,18 169,26 166,50ZM177,216C189,216 200,201 206,189C210,182 216,159 220,133C220,133 206,189 193,197C179,205 179,197 180,185C182,173 187,155 192,141C196,128 197,107 195,113C194,118 191,134 184,150C177,166 174,183 173,196C172,208 165,212 165,212C168,212 167,217 177,216Z" style="fill:rgb(133,86,56);fill-rule:nonzero;"/>
    </g>
    <g transform="matrix(1,0,0,1,-109.453,-8.72746)">
        <path d="M145,208C141,207 133,200 130,192C127,184 135,159 140,148C145,136 148,110 148,110C148,110 138,141 132,153C125,166 121,185 122,198C124,211 115,201 115,201L123,211C129,218 143,214 145,213L148,214C148,214 148,209 145,208Z" style="fill:rgb(133,86,56);fill-rule:nonzero;"/>
    </g>
    <g transform="matrix(1,0,0,1,-109.453,-8.72746)">
        <path d="M154,215L148,213C148,211 147,208 145,208C141,207 133,200 130,192L129,188C129,182 131,175 133,168L140,175L140,183C140,194 142,201 144,201C146,201 147,193 148,178C152.786,179.785 157.913,180.469 163,180L161,197L162,203L163,204C166,203 168,190 170,179L176,177L173,196C172,204 168,209 166,211C165.353,210.771 164.647,210.771 164,211C161,211 155,215 154,215Z" style="fill:rgb(144,96,68);fill-rule:nonzero;"/>
    </g>
    <g transform="matrix(1,0,0,1,-109.453,-8.72746)">
        <path d="M184,200C179,200 179,194 180,185C179,194 179,200 184,200ZM192,198L193,197C201,192 209,170 214,154C209,170 201,192 193,197L192,198Z" style="fill:rgb(229,220,212);fill-rule:nonzero;"/>
    </g>
    <g transform="matrix(1,0,0,1,-109.453,-8.72746)">
        <path d="M184,200C179,200 179,194 180,185L183,172L191,164C215,136 223,102 223,102L214,154C209,170 201,192 193,197L192,198C189,200 186,200 184,200Z" style="fill:rgb(144,96,68);fill-rule:nonzero;"/>
    </g>
    <g transform="matrix(1,0,0,1,-109.453,-8.72746)">
        <path d="M163,204L162,203L161,197L163,180L170,179C168,190 166,203 163,204ZM144,201C142,201 140,194 140,183L140,175L148,178C147,193 146,201 144,201ZM176,215L169,213L166,211C168,209 172,204 173,196L176,177L183,172C181.731,176.267 180.729,180.608 180,185C179,194 179,200 184,200C187.214,199.823 190.322,198.787 193,197C201,192 209,170 214,154L209,175C201,200 186,215 178,215L176,215Z" style="fill:rgb(122,76,48);fill-rule:nonzero;"/>
    </g>
    <g transform="matrix(1,0,0,1,-109.453,-8.72746)">
        <path d="M121,205L119,204C115,197 112,185 111,167C110,135 120,91 120,91C120,91 117,121 124,151L128,161C123.482,172.791 121.44,185.386 122,198L122,199C123,203 122,205 121,205Z" style="fill:rgb(144,96,68);fill-rule:nonzero;"/>
    </g>
    <g transform="matrix(1,0,0,1,-109.453,-8.72746)">
        <path d="M132,214L126,212C124,211 121,208 119,204L121,205C122,205 123,203 122,199L122,198L122,192C122,182 124,171 128,161L133,168C131,175 129,182 129,188L130,192C133,200 141,207 145,208C147,208 148,211 148,213L145,212L132,214Z" style="fill:rgb(122,76,48);fill-rule:nonzero;"/>
    </g>
</svg>
