<?xml version="1.0" encoding="UTF-8" standalone="no"?>
<!DOCTYPE svg PUBLIC "-//W3C//DTD SVG 1.1//EN" "http://www.w3.org/Graphics/SVG/1.1/DTD/svg11.dtd">
<svg width="100%" height="100%" viewBox="0 0 131 239" version="1.1" xmlns="http://www.w3.org/2000/svg" xmlns:xlink="http://www.w3.org/1999/xlink" xml:space="preserve" xmlns:serif="http://www.serif.com/" style="fill-rule:evenodd;clip-rule:evenodd;stroke-linejoin:round;stroke-miterlimit:1.41421;">
    <g transform="matrix(1,0,0,1,-94.9207,0)">
        <path d="M127,23C115,44 109,80 109,80L160,203L210,80C210,80 205,44 193,23L187,15L186,16C186,16 191,20 193,28C194,36 187,46 182,58C177,71 170,94 157,92C145,90 136,50 134,34C132,19 150,3 150,3C143,6 134,12 127,23Z" style="fill:rgb(172,206,127);fill-rule:nonzero;"/>
    </g>
    <g transform="matrix(1,0,0,1,-94.9207,0)">
        <path d="M134,34C136,50 145,90 157,92C170,94 177,71 182,58C187,46 194,36 193,28C191,20 186,16 186,16L187,15C175,2 160,0 160,0C160,0 156,0 150,3C150,3 132,19 134,34Z" style="fill:rgb(172,206,127);fill-rule:nonzero;"/>
    </g>
    <g transform="matrix(1,0,0,1,-94.9207,0)">
        <path d="M160,203L160,195C160,195 159,163 148,121C140,94 125,66 116,51L127,23C134,12 143,6 150,3C150,3 134,17 134,32L134,34C136,50 145,90 157,92L159,92C171,92 177,71 182,59L182,58C186,47 193,38 193,30L193,28C191,20 186,16 186,16L187,15L193,23L204,51C194,66 180,93 172,121C161,163 160,195 160,195L160,203Z" style="fill:rgb(159,188,109);fill-rule:nonzero;"/>
    </g>
    <g transform="matrix(1,0,0,1,-94.9207,0)">
        <path d="M159,92C171,92 177,71 182,59C177,71 171,92 159,92ZM134,32C134,17 150,3 150,3C150,3 134,17 134,32ZM193,30L193,28C191,20 186,16 186,16C186,16 191,20 193,28L193,30Z" style="fill:rgb(159,188,109);fill-rule:nonzero;"/>
    </g>
    <g transform="matrix(1,0,0,1,-94.9207,0)">
        <path d="M116,45C116,45 120,35 121,36C123,36 133,54 137,67C142,79 141,83 144,86C146,90 150,102 154,121C157,140 157,161 157,161L116,45Z" style="fill:rgb(141,121,97);fill-rule:nonzero;"/>
    </g>
    <g transform="matrix(1,0,0,1,-94.9207,0)">
        <path d="M108,38L112,38C112,38 130,67 143,99C156,132 160,177 160,190C160,203 134,184 134,184L108,38Z" style="fill:rgb(222,210,196);fill-rule:nonzero;"/>
    </g>
    <g transform="matrix(1,0,0,1,-94.9207,0)">
        <path d="M108,38C108,38 136,79 148,121C159,163 160,195 160,195L160,239C160,239 115,234 100,174C85,114 108,38 108,38Z" style="fill:rgb(197,176,150);fill-rule:nonzero;"/>
    </g>
    <g transform="matrix(1,0,0,1,-94.9207,0)">
        <path d="M204,45C204,45 200,35 199,36C197,36 187,54 182,67C178,79 178,83 176,86C174,90 170,102 166,121C163,140 163,161 163,161L204,45Z" style="fill:rgb(141,121,97);fill-rule:nonzero;"/>
    </g>
    <g transform="matrix(1,0,0,1,-94.9207,0)">
        <path d="M212,38L208,38C208,38 189,67 177,99C164,132 160,177 160,190C160,203 186,184 186,184L212,38Z" style="fill:rgb(222,210,196);fill-rule:nonzero;"/>
    </g>
    <g transform="matrix(1,0,0,1,-94.9207,0)">
        <path d="M212,38C212,38 184,79 172,121C161,163 160,195 160,195L160,239C160,239 205,234 220,174C235,114 212,38 212,38Z" style="fill:rgb(197,176,150);fill-rule:nonzero;"/>
    </g>
    <g transform="matrix(1,0,0,1,-94.9207,0)">
        <path d="M159,235C145,235 136,226 129,221C119,213 102,188 99,160C96,131 97,123 97,123C97,123 99,182 137,206C143.73,210.621 151.87,212.744 160,212L160,235L159,235ZM160,235L160,212C192,209 222,166 223,141C223,141 223,195 191,221C182.622,229.144 171.649,234.1 160,235Z" style="fill:rgb(187,165,140);fill-rule:nonzero;"/>
    </g>
</svg>
