<?xml version="1.0" encoding="UTF-8" standalone="no"?>
<!DOCTYPE svg PUBLIC "-//W3C//DTD SVG 1.1//EN" "http://www.w3.org/Graphics/SVG/1.1/DTD/svg11.dtd">
<svg width="100%" height="100%" viewBox="0 0 201 209" version="1.1" xmlns="http://www.w3.org/2000/svg" xmlns:xlink="http://www.w3.org/1999/xlink" xml:space="preserve" xmlns:serif="http://www.serif.com/" style="fill-rule:evenodd;clip-rule:evenodd;stroke-linejoin:round;stroke-miterlimit:1.41421;">
    <g transform="matrix(1,0,0,1,-107.93,-0.291301)">
        <path d="M160,151L163,147L161,104L167,100L167,97L161,101L158,35L173,66L167,145L160,151Z" style="fill:rgb(216,204,197);fill-rule:nonzero;"/>
    </g>
    <g transform="matrix(1,0,0,1,-107.93,-0.291301)">
        <path d="M208,45C208,45 204,46 204,51C203,56 201,60 195,61C189,62 183,57 190,45C197,34 203,19 203,10C203,1 193,-1 185,1C176,3 174,8 174,11C175,15 171,9 166,10C162,10 152,24 144,25C136,26 126,34 131,45C135,55 146,55 146,61C146,67 137,76 134,73C130,71 131,65 124,64C117,64 107,82 108,99C110,116 111,121 114,122C118,123 122,123 119,126C117,128 114,136 122,144C131,152 140,146 143,149C146,153 143,157 138,162C132,166 126,176 135,185C145,194 151,188 153,190C154,193 150,199 169,205C189,212 199,207 201,201C203,194 198,190 198,183C199,181 208,180 208,180L208,45Z" style="fill:rgb(231,166,105);fill-rule:nonzero;"/>
    </g>
    <g transform="matrix(1,0,0,1,-107.93,-0.291301)">
        <path d="M136,28C136,28 130,37 140,47C151,56 168,49 168,42C168,35 164,33 166,32C168,30 174,36 178,35C182,34 187,29 185,34C183,39 177,39 174,49C170,59 170,67 178,72C187,78 194,74 193,77C192,79 187,91 189,97L200,116C200,119 201,127 198,128C195,128 197,118 192,118C187,117 180,128 188,138C196,148 203,159 193,173C183,188 162,183 162,182C162,180 172,179 172,169C173,159 158,159 158,159C158,159 160,153 165,155C169,156 179,159 183,148C188,138 177,119 162,124C146,130 148,141 145,143L140,143C140,143 147,136 147,131C147,126 136,123 136,121C137,119 138,114 145,116C151,118 163,119 170,114C176,109 182,104 178,91C174,78 160,76 153,80C147,83 143,94 141,94C140,94 143,88 140,83C137,77 127,79 127,79L128,72C128,69 125,66 125,66C125,66 129,67 130,70L131,76C131,76 136,75 139,72C144,68 146,61 142,57C136,50 133,53 131,45C128,36 136,28 136,28Z" style="fill:rgb(200,136,84);fill-rule:nonzero;"/>
    </g>
    <g transform="matrix(1,0,0,1,-107.93,-0.291301)">
        <path d="M175,87C175,87 182,99 174,108C167,117 156,119 149,117C142,115 138,114 136,117C133,120 134,122 136,122C137,123 144,128 144,133C144,138 139,146 129,145C119,143 117,136 118,133C118,130 120,129 120,129C120,129 119,137 125,138C132,138 138,132 135,128C132,123 131,125 127,121C123,117 124,107 133,108C143,109 156,114 166,105C175,96 175,87 175,87ZM122,66C122,66 126,67 126,72C126,76 124,79 126,79C128,80 135,77 138,83C142,89 141,96 134,101C127,106 118,102 118,102C118,102 133,102 132,92C131,83 123,88 121,85C119,83 123,78 123,72L122,66ZM176,128C176,128 185,136 183,145C181,154 175,156 169,155C163,153 161,153 159,155L157,160C157,160 168,159 171,166C173,173 163,180 161,181L155,187C152,189 145,191 138,185C130,180 132,172 132,172C132,172 134,184 145,183C157,181 163,170 158,165C154,161 153,163 152,160C151,157 151,148 158,147C164,147 174,149 178,142C181,135 176,128 176,128ZM146,26C146,26 136,27 136,36C136,45 148,51 157,48C167,46 168,42 167,37C166,33 163,31 164,30C166,29 171,34 179,33C187,32 193,28 196,21C199,14 197,9 197,9C197,9 195,22 190,23C184,25 182,17 181,18C180,19 188,30 176,26C165,22 162,17 161,19C160,22 163,29 162,34C160,40 149,41 144,34C139,28 146,26 146,26ZM158,186C158,186 153,190 155,195C157,200 173,207 184,207C195,208 203,204 200,196C197,187 195,183 198,181C200,179 207,179 207,179C207,179 198,176 194,180C190,184 194,190 192,195C190,200 166,195 161,192C156,189 158,186 158,186ZM189,119C189,119 183,124 186,131C188,139 200,150 200,157C200,163 196,166 200,169C204,173 207,171 207,171C207,171 201,167 202,164C203,161 210,155 200,143C190,131 185,127 189,119ZM195,76C195,76 188,86 190,96C193,106 200,112 204,113L208,114L208,106C208,106 200,106 195,96C191,85 195,76 195,76ZM178,43C178,43 169,54 173,66C178,77 189,77 195,74C201,72 202,63 200,62C198,61 194,63 192,65C191,67 185,69 179,64C174,58 175,48 178,43Z" style="fill:rgb(216,154,99);fill-rule:nonzero;"/>
    </g>
    <g transform="matrix(1,0,0,1,-107.93,-0.291301)">
        <path d="M208,45C208,45 212,46 213,51C213,56 215,60 221,61C227,62 234,57 227,45C220,34 213,19 214,10C214,1 224,-1 232,1C240,3 242,8 242,11C242,15 245,9 250,10C255,10 265,24 272,25C280,26 291,34 286,45C282,55 271,55 271,61C271,67 279,76 283,73C286,71 286,65 293,64C300,64 309,82 308,99C307,116 306,121 302,122C298,123 295,123 297,126C300,128 303,136 294,144C286,152 277,146 274,149C271,153 273,157 279,162C284,166 291,176 281,185C272,194 265,188 264,190C262,193 267,199 247,205C228,212 218,207 216,201C213,194 218,190 218,183C218,181 208,180 208,180L208,45Z" style="fill:rgb(231,166,105);fill-rule:nonzero;"/>
    </g>
    <g transform="matrix(1,0,0,1,-107.93,-0.291301)">
        <path d="M280,28C280,28 287,37 276,47C266,56 248,49 248,42C248,35 252,33 250,32C249,30 243,36 239,35C235,34 230,29 232,34C233,39 239,39 243,49C246,59 247,67 239,72C230,78 223,74 223,77C224,79 230,91 227,97C225,103 217,113 217,116C217,119 216,127 219,128C222,128 220,118 225,118C230,117 237,128 229,138C221,148 214,159 224,173C234,188 255,183 255,182C255,180 245,179 244,169C244,159 258,159 258,159C258,159 256,153 252,155C248,156 237,159 233,148C229,138 240,119 255,124C270,130 269,141 271,143L276,143C276,143 270,136 270,131C270,126 281,123 280,121C280,119 279,114 272,116C265,118 254,119 247,114C240,109 235,104 239,91C242,78 257,76 263,80C270,83 274,94 275,94C277,94 273,88 276,83C279,77 290,79 290,79C290,79 288,75 289,72L291,66C291,66 288,67 287,70L286,76C286,76 281,75 277,72C273,68 271,61 275,57C281,50 283,53 286,45C289,36 280,28 280,28Z" style="fill:rgb(200,136,84);fill-rule:nonzero;"/>
    </g>
    <g transform="matrix(1,0,0,1,-107.93,-0.291301)">
        <path d="M241,87C241,87 235,99 242,108C250,117 261,119 268,117C275,115 279,114 281,117C283,120 283,122 281,122C279,123 272,128 272,133C273,138 277,146 287,145C297,143 300,136 299,133L297,129C297,129 298,137 291,138C285,138 278,132 281,128C285,123 285,125 289,121C293,117 293,107 283,108C274,109 261,114 251,105C241,96 241,87 241,87ZM295,66C295,66 291,67 291,72L291,79C289,80 281,77 278,83C275,89 275,96 282,101C289,106 299,102 299,102C299,102 284,102 285,92C286,83 294,88 296,85C298,83 293,78 294,72L295,66ZM241,128C241,128 232,136 233,145C235,154 242,156 248,155C254,153 256,153 258,155L260,160C260,160 249,159 246,166C243,173 254,180 256,181L261,187C264,189 272,191 279,185C286,180 284,172 284,172C284,172 282,184 271,183C260,181 253,170 258,165C263,161 264,163 265,160C266,157 265,148 259,147C252,147 242,149 239,142C235,135 241,128 241,128ZM271,26C271,26 281,27 281,36C281,45 268,51 259,48C250,46 249,42 250,37C251,33 253,31 252,30C251,29 246,34 238,33C230,32 224,28 221,21C218,14 219,9 219,9C219,9 221,22 227,23C232,25 235,17 236,18C237,19 229,30 240,26C252,22 255,17 256,19C256,22 253,29 255,34C256,40 268,41 273,34C277,28 271,26 271,26ZM259,186C259,186 264,190 262,195C260,200 244,207 232,207C221,208 214,204 217,196C219,187 221,183 219,181C216,179 209,179 209,179C209,179 219,176 223,180C227,184 223,190 225,195C227,200 251,195 256,192C260,189 259,186 259,186ZM228,119C228,119 234,124 231,131C228,139 217,150 217,157C216,163 220,166 217,169C213,173 209,171 209,171C209,171 215,167 214,164C214,161 207,155 217,143C226,131 232,127 228,119ZM221,76C221,76 229,86 226,96C224,106 216,112 213,113L208,114L208,106C208,106 217,106 221,96C226,85 221,76 221,76ZM239,43C239,43 247,54 243,66C239,77 228,77 222,74C216,72 215,63 217,62C218,61 223,63 224,65C226,67 232,69 237,64C243,58 241,48 239,43Z" style="fill:rgb(216,154,99);fill-rule:nonzero;"/>
    </g>
</svg>
