<svg width="250" height="35" viewBox="0 0 250 35" fill="none" xmlns="http://www.w3.org/2000/svg">
<path d="M25.8672 22.5273C25.6458 25.5872 24.513 27.9961 22.4688 29.7539C20.4375 31.5117 17.7552 32.3906 14.4219 32.3906C10.776 32.3906 7.90495 31.1667 5.80859 28.7188C3.72526 26.2578 2.68359 22.8854 2.68359 18.6016V16.8633C2.68359 14.1289 3.16536 11.7201 4.12891 9.63672C5.09245 7.55339 6.46615 5.95833 8.25 4.85156C10.0469 3.73177 12.1302 3.17188 14.5 3.17188C17.7812 3.17188 20.4245 4.05078 22.4297 5.80859C24.4349 7.56641 25.5938 10.0339 25.9062 13.2109H20.0469C19.9036 11.375 19.3893 10.0469 18.5039 9.22656C17.6315 8.39323 16.2969 7.97656 14.5 7.97656C12.5469 7.97656 11.082 8.67969 10.1055 10.0859C9.14193 11.4792 8.64714 13.6471 8.62109 16.5898V18.7383C8.62109 21.8112 9.08333 24.0573 10.0078 25.4766C10.9453 26.8958 12.4167 27.6055 14.4219 27.6055C16.2318 27.6055 17.5794 27.1953 18.4648 26.375C19.3633 25.5417 19.8776 24.2591 20.0078 22.5273H25.8672ZM34.8516 13.1719C36.349 11.375 38.2305 10.4766 40.4961 10.4766C45.0794 10.4766 47.4036 13.1393 47.4688 18.4648V32H41.8242V18.6211C41.8242 17.4102 41.5638 16.5182 41.043 15.9453C40.5221 15.3594 39.6562 15.0664 38.4453 15.0664C36.7917 15.0664 35.5938 15.7044 34.8516 16.9805V32H29.207V2H34.8516V13.1719ZM50.8477 21.2383C50.8477 19.1419 51.2513 17.2734 52.0586 15.6328C52.8659 13.9922 54.0247 12.7227 55.5352 11.8242C57.0586 10.9258 58.8229 10.4766 60.8281 10.4766C63.6797 10.4766 66.0039 11.349 67.8008 13.0938C69.6107 14.8385 70.6198 17.2083 70.8281 20.2031L70.8672 21.6484C70.8672 24.8906 69.9622 27.4948 68.1523 29.4609C66.3424 31.4141 63.9141 32.3906 60.8672 32.3906C57.8203 32.3906 55.3854 31.4141 53.5625 29.4609C51.7526 27.5078 50.8477 24.8516 50.8477 21.4922V21.2383ZM56.4922 21.6484C56.4922 23.6536 56.8698 25.1901 57.625 26.2578C58.3802 27.3125 59.4609 27.8398 60.8672 27.8398C62.2344 27.8398 63.3021 27.319 64.0703 26.2773C64.8385 25.2227 65.2227 23.543 65.2227 21.2383C65.2227 19.2721 64.8385 17.7487 64.0703 16.668C63.3021 15.5872 62.2214 15.0469 60.8281 15.0469C59.4479 15.0469 58.3802 15.5872 57.625 16.668C56.8698 17.7357 56.4922 19.3958 56.4922 21.6484ZM73.4648 21.2383C73.4648 19.1419 73.8685 17.2734 74.6758 15.6328C75.4831 13.9922 76.6419 12.7227 78.1523 11.8242C79.6758 10.9258 81.4401 10.4766 83.4453 10.4766C86.2969 10.4766 88.6211 11.349 90.418 13.0938C92.2279 14.8385 93.237 17.2083 93.4453 20.2031L93.4844 21.6484C93.4844 24.8906 92.5794 27.4948 90.7695 29.4609C88.9596 31.4141 86.5312 32.3906 83.4844 32.3906C80.4375 32.3906 78.0026 31.4141 76.1797 29.4609C74.3698 27.5078 73.4648 24.8516 73.4648 21.4922V21.2383ZM79.1094 21.6484C79.1094 23.6536 79.487 25.1901 80.2422 26.2578C80.9974 27.3125 82.0781 27.8398 83.4844 27.8398C84.8516 27.8398 85.9193 27.319 86.6875 26.2773C87.4557 25.2227 87.8398 23.543 87.8398 21.2383C87.8398 19.2721 87.4557 17.7487 86.6875 16.668C85.9193 15.5872 84.8385 15.0469 83.4453 15.0469C82.0651 15.0469 80.9974 15.5872 80.2422 16.668C79.487 17.7357 79.1094 19.3958 79.1094 21.6484ZM108.406 26.1602C108.406 25.4701 108.061 24.9297 107.371 24.5391C106.694 24.1354 105.6 23.7773 104.09 23.4648C99.0638 22.4102 96.5508 20.2747 96.5508 17.0586C96.5508 15.1836 97.3255 13.6211 98.875 12.3711C100.438 11.1081 102.475 10.4766 104.988 10.4766C107.671 10.4766 109.812 11.1081 111.414 12.3711C113.029 13.6341 113.836 15.2747 113.836 17.293H108.191C108.191 16.4857 107.931 15.8216 107.41 15.3008C106.889 14.7669 106.076 14.5 104.969 14.5C104.018 14.5 103.283 14.7148 102.762 15.1445C102.241 15.5742 101.98 16.1211 101.98 16.7852C101.98 17.4102 102.273 17.918 102.859 18.3086C103.458 18.6862 104.461 19.0182 105.867 19.3047C107.273 19.5781 108.458 19.8906 109.422 20.2422C112.404 21.3359 113.895 23.2305 113.895 25.9258C113.895 27.8529 113.068 29.4154 111.414 30.6133C109.76 31.7982 107.625 32.3906 105.008 32.3906C103.237 32.3906 101.661 32.0781 100.281 31.4531C98.9141 30.8151 97.8398 29.9492 97.0586 28.8555C96.2773 27.7487 95.8867 26.5573 95.8867 25.2812H101.238C101.29 26.2839 101.661 27.0521 102.352 27.5859C103.042 28.1198 103.966 28.3867 105.125 28.3867C106.206 28.3867 107.02 28.1849 107.566 27.7812C108.126 27.3646 108.406 26.8242 108.406 26.1602ZM127.273 32.3906C124.174 32.3906 121.648 31.4401 119.695 29.5391C117.755 27.638 116.785 25.1055 116.785 21.9414V21.3945C116.785 19.2721 117.195 17.3776 118.016 15.7109C118.836 14.0312 119.995 12.7422 121.492 11.8438C123.003 10.9323 124.721 10.4766 126.648 10.4766C129.539 10.4766 131.811 11.388 133.465 13.2109C135.132 15.0339 135.965 17.6185 135.965 20.9648V23.2695H122.508C122.69 24.6497 123.237 25.7565 124.148 26.5898C125.073 27.4232 126.238 27.8398 127.645 27.8398C129.819 27.8398 131.518 27.0521 132.742 25.4766L135.516 28.582C134.669 29.7799 133.523 30.7174 132.078 31.3945C130.633 32.0586 129.031 32.3906 127.273 32.3906ZM126.629 15.0469C125.509 15.0469 124.598 15.4245 123.895 16.1797C123.204 16.9349 122.762 18.0156 122.566 19.4219H130.418V18.9727C130.392 17.7227 130.053 16.7591 129.402 16.082C128.751 15.3919 127.827 15.0469 126.629 15.0469ZM165.574 26.1406H155.301L153.348 32H147.117L157.703 3.5625H163.133L173.777 32H167.547L165.574 26.1406ZM156.883 21.3945H163.992L160.418 10.75L156.883 21.3945ZM209.52 32H203.66L192.254 13.2891V32H186.395V3.5625H192.254L203.68 22.3125V3.5625H209.52V32ZM226.922 29.8516C225.529 31.5443 223.602 32.3906 221.141 32.3906C218.875 32.3906 217.143 31.7396 215.945 30.4375C214.76 29.1354 214.155 27.2279 214.129 24.7148V10.8672H219.773V24.5195C219.773 26.7201 220.776 27.8203 222.781 27.8203C224.695 27.8203 226.01 27.1562 226.727 25.8281V10.8672H232.391V32H227.078L226.922 29.8516ZM243.406 5.67188V10.8672H247.02V15.0078H243.406V25.5547C243.406 26.3359 243.556 26.8958 243.855 27.2344C244.155 27.5729 244.728 27.7422 245.574 27.7422C246.199 27.7422 246.753 27.6966 247.234 27.6055V31.8828C246.128 32.2214 244.988 32.3906 243.816 32.3906C239.858 32.3906 237.84 30.3919 237.762 26.3945V15.0078H234.676V10.8672H237.762V5.67188H243.406Z" fill="#FBFBF2"/>
<path d="M25.8672 22.5273L27.862 22.6716L28.0171 20.5273H25.8672V22.5273ZM22.4688 29.7539L21.1648 28.2374L21.16 28.2416L22.4688 29.7539ZM5.80859 28.7188L4.2821 30.011L4.28951 30.0197L5.80859 28.7188ZM8.25 4.85156L9.30442 6.55104L9.30779 6.54894L8.25 4.85156ZM22.4297 5.80859L21.1113 7.31254L22.4297 5.80859ZM25.9062 13.2109V15.2109H28.1126L27.8966 13.0152L25.9062 13.2109ZM20.0469 13.2109L18.0529 13.3665L18.1968 15.2109H20.0469V13.2109ZM18.5039 9.22656L17.1224 10.6728L17.1335 10.6833L17.1447 10.6937L18.5039 9.22656ZM10.1055 10.0859L8.46272 8.94514L8.46053 8.94832L10.1055 10.0859ZM8.62109 16.5898L6.62117 16.5721L6.62109 16.581V16.5898H8.62109ZM10.0078 25.4766L8.33195 26.5682L8.33902 26.5789L10.0078 25.4766ZM18.4648 26.375L19.8241 27.8421L19.8249 27.8413L18.4648 26.375ZM20.0078 22.5273V20.5273H18.1525L18.0134 22.3774L20.0078 22.5273ZM23.8724 22.383C23.6837 24.9916 22.7485 26.8757 21.1648 28.2374L23.7727 31.2704C26.2776 29.1165 27.608 26.1829 27.862 22.6716L23.8724 22.383ZM21.16 28.2416C19.5737 29.6143 17.3945 30.3906 14.4219 30.3906V34.3906C18.1159 34.3906 21.3013 33.4091 23.7775 31.2662L21.16 28.2416ZM14.4219 30.3906C11.2745 30.3906 8.99164 29.3608 7.32767 27.4178L4.28951 30.0197C6.81825 32.9725 10.2776 34.3906 14.4219 34.3906V30.3906ZM7.33506 27.4265C5.64555 25.4308 4.68359 22.5692 4.68359 18.6016H0.683594C0.683594 23.2016 1.80496 27.0849 4.28213 30.011L7.33506 27.4265ZM4.68359 18.6016V16.8633H0.683594V18.6016H4.68359ZM4.68359 16.8633C4.68359 14.3641 5.12337 12.2509 5.94416 10.4763L2.31365 8.79716C1.20735 11.1892 0.683594 13.8937 0.683594 16.8633H4.68359ZM5.94416 10.4763C6.75956 8.71325 7.88369 7.43251 9.30442 6.55103L7.19558 3.15209C5.04861 4.48416 3.42534 6.39352 2.31365 8.79716L5.94416 10.4763ZM9.30779 6.54894C10.7505 5.64988 12.4582 5.17188 14.5 5.17188V1.17188C11.8022 1.17188 9.34329 1.81366 7.19221 3.15419L9.30779 6.54894ZM14.5 5.17188C17.4126 5.17188 19.5498 5.94369 21.1113 7.31254L23.7481 4.30465C21.2992 2.15787 18.1499 1.17188 14.5 1.17188V5.17188ZM21.1113 7.31254C22.6615 8.67145 23.6427 10.6295 23.9159 13.4067L27.8966 13.0152C27.5448 9.43823 26.2083 6.46137 23.7481 4.30465L21.1113 7.31254ZM25.9062 11.2109H20.0469V15.2109H25.9062V11.2109ZM22.0408 13.0554C21.8784 10.9737 21.2703 9.06308 19.8632 7.75944L17.1447 10.6937C17.5084 11.0307 17.9289 11.7763 18.0529 13.3665L22.0408 13.0554ZM19.8854 7.78034C18.4937 6.45097 16.5636 5.97656 14.5 5.97656V9.97656C16.0302 9.97656 16.7693 10.3355 17.1224 10.6728L19.8854 7.78034ZM14.5 5.97656C11.9985 5.97656 9.87012 6.9185 8.46273 8.94515L11.7482 11.2267C12.2939 10.4409 13.0953 9.97656 14.5 9.97656V5.97656ZM8.46053 8.94832C7.15594 10.8347 6.64845 13.49 6.62117 16.5721L10.621 16.6075C10.6458 13.8043 11.1279 12.1236 11.7504 11.2236L8.46053 8.94832ZM6.62109 16.5898V18.7383H10.6211V16.5898H6.62109ZM6.62109 18.7383C6.62109 21.9263 7.08475 24.6534 8.33198 26.5682L11.6836 24.385C11.0819 23.4612 10.6211 21.6961 10.6211 18.7383H6.62109ZM8.33902 26.5789C9.71735 28.6655 11.884 29.6055 14.4219 29.6055V25.6055C12.9493 25.6055 12.1733 25.1261 11.6766 24.3742L8.33902 26.5789ZM14.4219 29.6055C16.4898 29.6055 18.4212 29.1419 19.8241 27.8421L17.1056 24.9079C16.7377 25.2488 15.9738 25.6055 14.4219 25.6055V29.6055ZM19.8249 27.8413C21.223 26.5446 21.8499 24.7025 22.0022 22.6773L18.0134 22.3774C17.9053 23.8158 17.5036 24.5387 17.1048 24.9087L19.8249 27.8413ZM20.0078 24.5273H25.8672V20.5273H20.0078V24.5273ZM34.8516 13.1719H32.8516V18.696L36.388 14.4522L34.8516 13.1719ZM47.4688 18.4648H49.4688V18.4526L49.4686 18.4404L47.4688 18.4648ZM47.4688 32V34H49.4688V32H47.4688ZM41.8242 32H39.8242V34H41.8242V32ZM41.043 15.9453L39.5481 17.274L39.5556 17.2824L39.5631 17.2907L41.043 15.9453ZM34.8516 16.9805L33.1227 15.9749L32.8516 16.4411V16.9805H34.8516ZM34.8516 32V34H36.8516V32H34.8516ZM29.207 32H27.207V34H29.207V32ZM29.207 2V0H27.207V2H29.207ZM34.8516 2H36.8516V0H34.8516V2ZM36.388 14.4522C37.5196 13.0943 38.8458 12.4766 40.4961 12.4766V8.47656C37.6151 8.47656 35.1783 9.65567 33.3151 11.8915L36.388 14.4522ZM40.4961 12.4766C42.393 12.4766 43.4933 13.0136 44.17 13.7888C44.895 14.6193 45.4393 16.0695 45.4689 18.4893L49.4686 18.4404C49.4331 15.5346 48.7828 12.9907 47.1835 11.1585C45.536 9.27092 43.1825 8.47656 40.4961 8.47656V12.4766ZM45.4688 18.4648V32H49.4688V18.4648H45.4688ZM47.4688 30H41.8242V34H47.4688V30ZM43.8242 32V18.6211H39.8242V32H43.8242ZM43.8242 18.6211C43.8242 17.1815 43.5234 15.7006 42.5229 14.6L39.5631 17.2907C39.6042 17.3359 39.8242 17.6388 39.8242 18.6211H43.8242ZM42.5378 14.6166C41.4715 13.417 39.918 13.0664 38.4453 13.0664V17.0664C38.8992 17.0664 39.1902 17.1225 39.3619 17.1806C39.4443 17.2085 39.4924 17.2345 39.517 17.2501C39.5403 17.2648 39.5475 17.2734 39.5481 17.274L42.5378 14.6166ZM38.4453 13.0664C36.1825 13.0664 34.272 13.999 33.1227 15.9749L36.5804 17.986C36.9155 17.4099 37.4008 17.0664 38.4453 17.0664V13.0664ZM32.8516 16.9805V32H36.8516V16.9805H32.8516ZM34.8516 30H29.207V34H34.8516V30ZM31.207 32V2H27.207V32H31.207ZM29.207 4H34.8516V0H29.207V4ZM32.8516 2V13.1719H36.8516V2H32.8516ZM52.0586 15.6328L50.2641 14.7498L52.0586 15.6328ZM55.5352 11.8242L54.5192 10.1015L54.5127 10.1053L55.5352 11.8242ZM67.8008 13.0938L66.4075 14.5286L66.4127 14.5336L67.8008 13.0938ZM70.8281 20.2031L72.8274 20.1491L72.8262 20.1067L72.8233 20.0643L70.8281 20.2031ZM70.8672 21.6484H72.8672V21.6214L72.8665 21.5944L70.8672 21.6484ZM68.1523 29.4609L69.6193 30.8203L69.6238 30.8155L68.1523 29.4609ZM53.5625 29.4609L52.0955 30.8203L52.1004 30.8256L53.5625 29.4609ZM57.625 26.2578L55.9921 27.4128L55.9989 27.4222L57.625 26.2578ZM64.0703 26.2773L65.6799 27.4644L65.6869 27.4549L64.0703 26.2773ZM57.625 16.668L59.2579 17.8229L59.2644 17.8136L57.625 16.668ZM52.8477 21.2383C52.8477 19.4032 53.1995 17.844 53.8531 16.5158L50.2641 14.7498C49.3031 16.7028 48.8477 18.8807 48.8477 21.2383H52.8477ZM53.8531 16.5158C54.4967 15.2079 55.394 14.2353 56.5576 13.5431L54.5127 10.1053C52.6555 11.21 51.2351 12.7765 50.2641 14.7498L53.8531 16.5158ZM56.5511 13.547C57.7273 12.8533 59.1315 12.4766 60.8281 12.4766V8.47656C58.5143 8.47656 56.3899 8.99826 54.5192 10.1015L56.5511 13.547ZM60.8281 12.4766C63.2375 12.4766 65.0363 13.1972 66.4075 14.5286L69.194 11.6589C66.9715 9.50073 64.1219 8.47656 60.8281 8.47656V12.4766ZM66.4127 14.5336C67.7993 15.8704 68.6519 17.7398 68.8329 20.3419L72.8233 20.0643C72.5876 16.6769 71.422 13.8067 69.1889 11.6539L66.4127 14.5336ZM68.8289 20.2572L68.8679 21.7025L72.8665 21.5944L72.8274 20.1491L68.8289 20.2572ZM68.8672 21.6484C68.8672 24.5015 68.0816 26.5848 66.6809 28.1064L69.6238 30.8155C71.8429 28.4048 72.8672 25.2797 72.8672 21.6484H68.8672ZM66.6854 28.1015C65.3101 29.5857 63.4455 30.3906 60.8672 30.3906V34.3906C64.3826 34.3906 67.3748 33.2425 69.6193 30.8203L66.6854 28.1015ZM60.8672 30.3906C58.2891 30.3906 56.4146 29.5856 55.0246 28.0963L52.1004 30.8256C54.3562 33.2426 57.3515 34.3906 60.8672 34.3906V30.3906ZM55.0295 28.1015C53.6453 26.6079 52.8477 24.4847 52.8477 21.4922H48.8477C48.8477 25.2184 49.8599 28.4078 52.0955 30.8203L55.0295 28.1015ZM52.8477 21.4922V21.2383H48.8477V21.4922H52.8477ZM54.4922 21.6484C54.4922 23.8608 54.9015 25.8708 55.9922 27.4127L59.2578 25.1029C58.8381 24.5094 58.4922 23.4464 58.4922 21.6484H54.4922ZM55.9989 27.4222C57.1651 29.0509 58.8792 29.8398 60.8672 29.8398V25.8398C60.0426 25.8398 59.5953 25.5741 59.2511 25.0934L55.9989 27.4222ZM60.8672 29.8398C62.8277 29.8398 64.5105 29.0501 65.6799 27.4644L62.4607 25.0903C62.0937 25.5879 61.6411 25.8398 60.8672 25.8398V29.8398ZM65.6869 27.4549C66.8321 25.8826 67.2227 23.6794 67.2227 21.2383H63.2227C63.2227 23.4065 62.845 24.5627 62.4537 25.0998L65.6869 27.4549ZM67.2227 21.2383C67.2227 19.0471 66.8 17.056 65.7004 15.5092L62.4402 17.8267C62.8771 18.4414 63.2227 19.4972 63.2227 21.2383H67.2227ZM65.7004 15.5092C64.5351 13.8699 62.8301 13.0469 60.8281 13.0469V17.0469C61.6126 17.0469 62.069 17.3046 62.4402 17.8267L65.7004 15.5092ZM60.8281 13.0469C58.831 13.0469 57.1353 13.8772 55.9856 15.5224L59.2644 17.8136C59.6251 17.2973 60.0648 17.0469 60.8281 17.0469V13.0469ZM55.9922 15.513C54.8802 17.0851 54.4922 19.2485 54.4922 21.6484H58.4922C58.4922 19.5431 58.8594 18.3863 59.2578 17.8229L55.9922 15.513ZM74.6758 15.6328L72.8813 14.7498L74.6758 15.6328ZM78.1523 11.8242L77.1364 10.1015L77.1299 10.1053L78.1523 11.8242ZM90.418 13.0938L89.0247 14.5286L89.0299 14.5336L90.418 13.0938ZM93.4453 20.2031L95.4446 20.1491L95.4434 20.1067L95.4405 20.0643L93.4453 20.2031ZM93.4844 21.6484H95.4844V21.6214L95.4836 21.5944L93.4844 21.6484ZM90.7695 29.4609L92.2365 30.8203L92.241 30.8155L90.7695 29.4609ZM76.1797 29.4609L74.7127 30.8203L74.7176 30.8256L76.1797 29.4609ZM80.2422 26.2578L78.6093 27.4128L78.6161 27.4222L80.2422 26.2578ZM86.6875 26.2773L88.2971 27.4644L88.3041 27.4549L86.6875 26.2773ZM80.2422 16.668L81.875 17.8229L81.8816 17.8136L80.2422 16.668ZM75.4648 21.2383C75.4648 19.4032 75.8167 17.844 76.4703 16.5158L72.8813 14.7498C71.9202 16.7028 71.4648 18.8807 71.4648 21.2383H75.4648ZM76.4703 16.5158C77.1139 15.2079 78.0112 14.2353 79.1748 13.5431L77.1299 10.1053C75.2727 11.21 73.8523 12.7765 72.8813 14.7498L76.4703 16.5158ZM79.1683 13.547C80.3445 12.8533 81.7487 12.4766 83.4453 12.4766V8.47656C81.1315 8.47656 79.0071 8.99826 77.1364 10.1015L79.1683 13.547ZM83.4453 12.4766C85.8547 12.4766 87.6535 13.1972 89.0247 14.5286L91.8112 11.6589C89.5887 9.50073 86.7391 8.47656 83.4453 8.47656V12.4766ZM89.0299 14.5336C90.4165 15.8704 91.2691 17.7398 91.4501 20.3419L95.4405 20.0643C95.2048 16.6769 94.0392 13.8067 91.806 11.6539L89.0299 14.5336ZM91.446 20.2572L91.4851 21.7025L95.4836 21.5944L95.4446 20.1491L91.446 20.2572ZM91.4844 21.6484C91.4844 24.5015 90.6988 26.5848 89.2981 28.1064L92.241 30.8155C94.4601 28.4048 95.4844 25.2797 95.4844 21.6484H91.4844ZM89.3026 28.1015C87.9273 29.5857 86.0627 30.3906 83.4844 30.3906V34.3906C86.9998 34.3906 89.992 33.2425 92.2365 30.8203L89.3026 28.1015ZM83.4844 30.3906C80.9063 30.3906 79.0318 29.5856 77.6418 28.0963L74.7176 30.8256C76.9734 33.2426 79.9687 34.3906 83.4844 34.3906V30.3906ZM77.6467 28.1015C76.2625 26.6079 75.4648 24.4847 75.4648 21.4922H71.4648C71.4648 25.2184 72.4771 28.4078 74.7127 30.8203L77.6467 28.1015ZM75.4648 21.4922V21.2383H71.4648V21.4922H75.4648ZM77.1094 21.6484C77.1094 23.8608 77.5187 25.8708 78.6094 27.4127L81.875 25.1029C81.4552 24.5094 81.1094 23.4464 81.1094 21.6484H77.1094ZM78.6161 27.4222C79.7823 29.0509 81.4964 29.8398 83.4844 29.8398V25.8398C82.6598 25.8398 82.2125 25.5741 81.8683 25.0934L78.6161 27.4222ZM83.4844 29.8398C85.4449 29.8398 87.1277 29.0501 88.2971 27.4644L85.0779 25.0903C84.7109 25.5879 84.2583 25.8398 83.4844 25.8398V29.8398ZM88.3041 27.4549C89.4493 25.8826 89.8398 23.6794 89.8398 21.2383H85.8398C85.8398 23.4065 85.4621 24.5627 85.0709 25.0998L88.3041 27.4549ZM89.8398 21.2383C89.8398 19.0471 89.4172 17.056 88.3176 15.5092L85.0574 17.8267C85.4943 18.4414 85.8398 19.4972 85.8398 21.2383H89.8398ZM88.3176 15.5092C87.1523 13.8699 85.4473 13.0469 83.4453 13.0469V17.0469C84.2298 17.0469 84.6862 17.3046 85.0574 17.8267L88.3176 15.5092ZM83.4453 13.0469C81.4482 13.0469 79.7525 13.8772 78.6028 15.5224L81.8816 17.8136C82.2423 17.2973 82.682 17.0469 83.4453 17.0469V13.0469ZM78.6094 15.513C77.4974 17.0851 77.1094 19.2485 77.1094 21.6484H81.1094C81.1094 19.5431 81.4765 18.3863 81.875 17.8229L78.6094 15.513ZM107.371 24.5391L106.347 26.257L106.366 26.2685L106.386 26.2796L107.371 24.5391ZM104.09 23.4648L103.679 25.4222L103.685 25.4234L104.09 23.4648ZM98.875 12.3711L100.131 13.9277L100.132 13.9265L98.875 12.3711ZM111.414 12.3711L110.176 13.9415L110.182 13.9464L111.414 12.3711ZM113.836 17.293V19.293H115.836V17.293H113.836ZM108.191 17.293H106.191V19.293H108.191V17.293ZM107.41 15.3008L105.979 16.6974L105.987 16.7063L105.996 16.715L107.41 15.3008ZM102.859 18.3086L101.75 19.9727L101.771 19.9868L101.793 20.0004L102.859 18.3086ZM105.867 19.3047L105.468 21.2644L105.477 21.2662L105.485 21.2679L105.867 19.3047ZM109.422 20.2422L110.111 18.3645L110.107 18.3633L109.422 20.2422ZM111.414 30.6133L112.579 32.239L112.587 32.233L111.414 30.6133ZM100.281 31.4531L99.4355 33.2655L99.4458 33.2703L99.4562 33.275L100.281 31.4531ZM97.0586 28.8555L95.4246 30.0089L95.4311 30.0179L97.0586 28.8555ZM95.8867 25.2812V23.2812H93.8867V25.2812H95.8867ZM101.238 25.2812L103.236 25.1775L103.137 23.2812H101.238V25.2812ZM107.566 27.7812L108.754 29.3904L108.76 29.3857L107.566 27.7812ZM110.406 26.1602C110.406 24.629 109.561 23.4806 108.356 22.7985L106.386 26.2796C106.513 26.3515 106.502 26.3765 106.462 26.3137C106.442 26.2834 106.426 26.2471 106.416 26.2107C106.406 26.1753 106.406 26.1557 106.406 26.1602H110.406ZM108.395 22.8212C107.421 22.2402 106.056 21.8294 104.495 21.5063L103.685 25.4234C105.144 25.7253 105.967 26.0306 106.347 26.257L108.395 22.8212ZM104.501 21.5075C102.149 21.014 100.63 20.3123 99.7306 19.5482C98.9082 18.8494 98.5508 18.0629 98.5508 17.0586H94.5508C94.5508 19.2704 95.4498 21.1597 97.1405 22.5963C98.7543 23.9677 101.005 24.861 103.679 25.4222L104.501 21.5075ZM98.5508 17.0586C98.5508 15.83 99.0185 14.825 100.131 13.9277L97.6192 10.8145C95.6326 12.4172 94.5508 14.5372 94.5508 17.0586H98.5508ZM100.132 13.9265C101.257 13.0173 102.815 12.4766 104.988 12.4766V8.47656C102.135 8.47656 99.6179 9.19889 97.6177 10.8157L100.132 13.9265ZM104.988 12.4766C107.363 12.4766 109.024 13.0336 110.176 13.9415L112.653 10.8007C110.601 9.18259 107.978 8.47656 104.988 8.47656V12.4766ZM110.182 13.9464C111.321 14.8373 111.836 15.9012 111.836 17.293H115.836C115.836 14.6483 114.737 12.4309 112.646 10.7958L110.182 13.9464ZM113.836 15.293H108.191V19.293H113.836V15.293ZM110.191 17.293C110.191 16.0113 109.758 14.8203 108.824 13.8866L105.996 16.715C106.104 16.8229 106.191 16.9601 106.191 17.293H110.191ZM108.842 13.9041C107.795 12.8314 106.355 12.5 104.969 12.5V16.5C105.369 16.5 105.629 16.5492 105.786 16.6006C105.932 16.6486 105.974 16.6932 105.979 16.6974L108.842 13.9041ZM104.969 12.5C103.74 12.5 102.49 12.7763 101.489 13.6018L104.034 16.6873C104.076 16.6534 104.296 16.5 104.969 16.5V12.5ZM101.489 13.6018C100.517 14.404 99.9805 15.5126 99.9805 16.7852H103.98C103.98 16.7504 103.984 16.7332 103.985 16.7296C103.985 16.7266 103.985 16.7303 103.982 16.7368C103.978 16.7433 103.977 16.7441 103.982 16.7382C103.987 16.7317 104.002 16.714 104.034 16.6873L101.489 13.6018ZM99.9805 16.7852C99.9805 18.1724 100.69 19.2662 101.75 19.9727L103.969 16.6445C103.881 16.5859 103.897 16.5743 103.933 16.6353C103.949 16.6643 103.963 16.6977 103.972 16.7312C103.976 16.7469 103.978 16.7601 103.979 16.77C103.98 16.7748 103.98 16.7786 103.98 16.7812C103.98 16.7825 103.98 16.7835 103.98 16.7841C103.98 16.7845 103.98 16.7847 103.98 16.7849C103.98 16.785 103.98 16.785 103.98 16.7851C103.98 16.7851 103.98 16.7851 103.98 16.7851C103.98 16.7848 103.98 16.7855 103.98 16.7852C103.98 16.7848 103.98 16.7855 103.98 16.7852H99.9805ZM101.793 20.0004C102.714 20.5812 104.017 20.9689 105.468 21.2644L106.266 17.3449C104.905 17.0676 104.203 16.7911 103.926 16.6167L101.793 20.0004ZM105.485 21.2679C106.826 21.5285 107.902 21.8166 108.736 22.121L110.107 18.3633C109.015 17.9647 107.721 17.6278 106.249 17.3415L105.485 21.2679ZM108.733 22.1199C109.984 22.5786 110.75 23.143 111.205 23.7202C111.64 24.2733 111.895 24.9708 111.895 25.9258H115.895C115.895 24.1854 115.404 22.588 114.348 21.2466C113.311 19.9293 111.842 18.9995 110.111 18.3645L108.733 22.1199ZM111.895 25.9258C111.895 27.1681 111.411 28.1455 110.241 28.9936L112.587 32.233C114.724 30.6852 115.895 28.5376 115.895 25.9258H111.895ZM110.249 28.9875C109.021 29.8675 107.327 30.3906 105.008 30.3906V34.3906C107.923 34.3906 110.5 33.7288 112.579 32.239L110.249 28.9875ZM105.008 30.3906C103.474 30.3906 102.187 30.1207 101.106 29.6312L99.4562 33.275C101.136 34.0356 103 34.3906 105.008 34.3906V30.3906ZM101.127 29.6408C100.033 29.1302 99.2435 28.4734 98.6861 27.693L95.4311 30.0179C96.4362 31.4251 97.7951 32.5 99.4355 33.2655L101.127 29.6408ZM98.6925 27.7021C98.1339 26.9107 97.8867 26.1181 97.8867 25.2812H93.8867C93.8867 26.9965 94.4208 28.5867 95.4247 30.0088L98.6925 27.7021ZM95.8867 27.2812H101.238V23.2812H95.8867V27.2812ZM99.241 25.385C99.3182 26.872 99.9049 28.2218 101.128 29.1679L103.575 26.004C103.418 25.8824 103.263 25.6957 103.236 25.1775L99.241 25.385ZM101.128 29.1679C102.268 30.0498 103.668 30.3867 105.125 30.3867V26.3867C104.264 26.3867 103.815 26.1897 103.575 26.004L101.128 29.1679ZM105.125 30.3867C106.4 30.3867 107.714 30.1584 108.754 29.3904L106.379 26.1721C106.325 26.2114 106.012 26.3867 105.125 26.3867V30.3867ZM108.76 29.3857C109.797 28.6142 110.406 27.4932 110.406 26.1602H106.406C106.406 26.1849 106.404 26.1906 106.406 26.1822C106.407 26.1783 106.408 26.1724 106.411 26.1651C106.414 26.1578 106.417 26.1504 106.42 26.1435C106.424 26.1365 106.427 26.1313 106.43 26.1279C106.432 26.1246 106.433 26.1241 106.431 26.1264C106.427 26.1307 106.41 26.1486 106.372 26.1768L108.76 29.3857ZM119.695 29.5391L118.296 30.9676L118.3 30.9723L119.695 29.5391ZM118.016 15.7109L119.81 16.5941L119.813 16.5886L118.016 15.7109ZM121.492 11.8438L122.521 13.5587L122.526 13.5561L121.492 11.8438ZM133.465 13.2109L131.984 14.5547L131.989 14.5605L133.465 13.2109ZM135.965 23.2695V25.2695H137.965V23.2695H135.965ZM122.508 23.2695V21.2695H120.226L120.525 23.5314L122.508 23.2695ZM124.148 26.5898L122.799 28.0659L122.809 28.0754L124.148 26.5898ZM132.742 25.4766L134.234 24.1443L132.635 22.3542L131.163 24.2496L132.742 25.4766ZM135.516 28.582L137.149 29.7361L138.067 28.4366L137.007 27.2498L135.516 28.582ZM132.078 31.3945L132.913 33.2119L132.92 33.2088L132.927 33.2056L132.078 31.3945ZM123.895 16.1797L122.431 14.8169L122.424 14.8237L122.418 14.8305L123.895 16.1797ZM122.566 19.4219L120.585 19.1467L120.269 21.4219H122.566V19.4219ZM130.418 19.4219V21.4219H132.418V19.4219H130.418ZM130.418 18.9727H132.418V18.9518L132.418 18.931L130.418 18.9727ZM129.402 16.082L127.948 17.4545L127.954 17.4614L127.961 17.4682L129.402 16.082ZM127.273 30.3906C124.618 30.3906 122.618 29.5929 121.09 28.1059L118.3 30.9723C120.679 33.2873 123.731 34.3906 127.273 34.3906V30.3906ZM121.095 28.1105C119.602 26.648 118.785 24.664 118.785 21.9414H114.785C114.785 25.5469 115.908 28.6281 118.296 30.9676L121.095 28.1105ZM118.785 21.9414V21.3945H114.785V21.9414H118.785ZM118.785 21.3945C118.785 19.5346 119.143 17.9493 119.81 16.5941L116.221 14.8277C115.248 16.806 114.785 19.0097 114.785 21.3945H118.785ZM119.813 16.5886C120.476 15.2308 121.379 14.244 122.521 13.5587L120.463 10.1288C118.611 11.2404 117.196 12.8317 116.218 14.8333L119.813 16.5886ZM122.526 13.5561C123.696 12.85 125.051 12.4766 126.648 12.4766V8.47656C124.392 8.47656 122.31 9.01456 120.459 10.1314L122.526 13.5561ZM126.648 12.4766C129.083 12.4766 130.776 13.2233 131.984 14.5547L134.946 11.8672C132.847 9.55269 129.996 8.47656 126.648 8.47656V12.4766ZM131.989 14.5605C133.214 15.9007 133.965 17.9384 133.965 20.9648H137.965C137.965 17.2986 137.049 14.167 134.941 11.8614L131.989 14.5605ZM133.965 20.9648V23.2695H137.965V20.9648H133.965ZM135.965 21.2695H122.508V25.2695H135.965V21.2695ZM120.525 23.5314C120.761 25.3151 121.496 26.8745 122.799 28.0659L125.498 25.1138C124.978 24.6386 124.62 23.9844 124.491 23.0077L120.525 23.5314ZM122.809 28.0754C124.149 29.2833 125.813 29.8398 127.645 29.8398V25.8398C126.664 25.8398 125.996 25.563 125.488 25.1043L122.809 28.0754ZM127.645 29.8398C130.373 29.8398 132.681 28.8151 134.322 26.7035L131.163 24.2496C130.355 25.2891 129.265 25.8398 127.645 25.8398V29.8398ZM131.25 26.8088L134.024 29.9142L137.007 27.2498L134.234 24.1443L131.25 26.8088ZM133.882 27.428C133.253 28.3178 132.389 29.0402 131.23 29.5834L132.927 33.2056C134.658 32.3947 136.085 31.2421 137.149 29.7361L133.882 27.428ZM131.243 29.5772C130.086 30.1088 128.774 30.3906 127.273 30.3906V34.3906C129.289 34.3906 131.179 34.0084 132.913 33.2119L131.243 29.5772ZM126.629 13.0469C125.007 13.0469 123.547 13.6182 122.431 14.8169L125.358 17.5425C125.649 17.2308 126.012 17.0469 126.629 17.0469V13.0469ZM122.418 14.8305C121.368 15.9799 120.815 17.4904 120.585 19.1467L124.547 19.697C124.708 18.5409 125.041 17.8899 125.371 17.5288L122.418 14.8305ZM122.566 21.4219H130.418V17.4219H122.566V21.4219ZM132.418 19.4219V18.9727H128.418V19.4219H132.418ZM132.418 18.931C132.385 17.3485 131.945 15.8413 130.844 14.6958L127.961 17.4682C128.161 17.6769 128.399 18.0968 128.418 19.0143L132.418 18.931ZM130.857 14.7096C129.734 13.5194 128.224 13.0469 126.629 13.0469V17.0469C127.43 17.0469 127.768 17.2644 127.948 17.4545L130.857 14.7096ZM165.574 26.1406L167.47 25.5025L167.011 24.1406H165.574V26.1406ZM155.301 26.1406V24.1406H153.859L153.403 25.5082L155.301 26.1406ZM153.348 32V34H154.789L155.245 32.6325L153.348 32ZM147.117 32L145.243 31.3023L144.239 34H147.117V32ZM157.703 3.5625V1.5625H156.314L155.829 2.86477L157.703 3.5625ZM163.133 3.5625L165.006 2.86138L164.52 1.5625H163.133V3.5625ZM173.777 32V34H176.661L175.65 31.2989L173.777 32ZM167.547 32L165.651 32.6381L166.11 34H167.547V32ZM156.883 21.3945L154.985 20.7642L154.111 23.3945H156.883V21.3945ZM163.992 21.3945V23.3945H166.773L165.888 20.7579L163.992 21.3945ZM160.418 10.75L162.314 10.1134L160.408 4.43586L158.52 10.1196L160.418 10.75ZM165.574 24.1406H155.301V28.1406H165.574V24.1406ZM153.403 25.5082L151.45 31.3675L155.245 32.6325L157.198 26.7731L153.403 25.5082ZM153.348 30H147.117V34H153.348V30ZM148.992 32.6977L159.577 4.26023L155.829 2.86477L145.243 31.3023L148.992 32.6977ZM157.703 5.5625H163.133V1.5625H157.703V5.5625ZM161.26 4.26362L171.904 32.7011L175.65 31.2989L165.006 2.86138L161.26 4.26362ZM173.777 30H167.547V34H173.777V30ZM169.442 31.3619L167.47 25.5025L163.679 26.7788L165.651 32.6381L169.442 31.3619ZM156.883 23.3945H163.992V19.3945H156.883V23.3945ZM165.888 20.7579L162.314 10.1134L158.522 11.3866L162.096 22.0312L165.888 20.7579ZM158.52 10.1196L154.985 20.7642L158.781 22.0249L162.316 11.3804L158.52 10.1196ZM209.52 32V34H211.52V32H209.52ZM203.66 32L201.952 33.041L202.537 34H203.66V32ZM192.254 13.2891L193.962 12.248L190.254 6.16587V13.2891H192.254ZM192.254 32V34H194.254V32H192.254ZM186.395 32H184.395V34H186.395V32ZM186.395 3.5625V1.5625H184.395V3.5625H186.395ZM192.254 3.5625L193.962 2.52176L193.377 1.5625H192.254V3.5625ZM203.68 22.3125L201.972 23.3532L205.68 29.438V22.3125H203.68ZM203.68 3.5625V1.5625H201.68V3.5625H203.68ZM209.52 3.5625H211.52V1.5625H209.52V3.5625ZM209.52 30H203.66V34H209.52V30ZM205.368 30.959L193.962 12.248L190.546 14.3301L201.952 33.041L205.368 30.959ZM190.254 13.2891V32H194.254V13.2891H190.254ZM192.254 30H186.395V34H192.254V30ZM188.395 32V3.5625H184.395V32H188.395ZM186.395 5.5625H192.254V1.5625H186.395V5.5625ZM190.546 4.60324L201.972 23.3532L205.388 21.2718L193.962 2.52176L190.546 4.60324ZM205.68 22.3125V3.5625H201.68V22.3125H205.68ZM203.68 5.5625H209.52V1.5625H203.68V5.5625ZM207.52 3.5625V32H211.52V3.5625H207.52ZM226.922 29.8516L228.917 29.7065L228.554 24.7214L225.378 28.5806L226.922 29.8516ZM215.945 30.4375L214.466 31.7836L214.473 31.7916L215.945 30.4375ZM214.129 24.7148H212.129V24.7252L212.129 24.7356L214.129 24.7148ZM214.129 10.8672V8.86719H212.129V10.8672H214.129ZM219.773 10.8672H221.773V8.86719H219.773V10.8672ZM226.727 25.8281L228.487 26.7774L228.727 26.333V25.8281H226.727ZM226.727 10.8672V8.86719H224.727V10.8672H226.727ZM232.391 10.8672H234.391V8.86719H232.391V10.8672ZM232.391 32V34H234.391V32H232.391ZM227.078 32L225.083 32.1451L225.218 34H227.078V32ZM225.378 28.5806C224.414 29.7515 223.086 30.3906 221.141 30.3906V34.3906C224.117 34.3906 226.643 33.3371 228.466 31.1226L225.378 28.5806ZM221.141 30.3906C219.268 30.3906 218.137 29.8654 217.417 29.0834L214.473 31.7916C216.15 33.6138 218.482 34.3906 221.141 34.3906V30.3906ZM217.425 29.0914C216.687 28.2811 216.152 26.9242 216.129 24.6941L212.129 24.7356C212.158 27.5315 212.834 29.9897 214.466 31.7836L217.425 29.0914ZM216.129 24.7148V10.8672H212.129V24.7148H216.129ZM214.129 12.8672H219.773V8.86719H214.129V12.8672ZM217.773 10.8672V24.5195H221.773V10.8672H217.773ZM217.773 24.5195C217.773 25.8844 218.08 27.2814 219.047 28.3422C220.046 29.4383 221.42 29.8203 222.781 29.8203V25.8203C222.137 25.8203 222.007 25.6522 222.004 25.648C221.968 25.6086 221.773 25.3551 221.773 24.5195H217.773ZM222.781 29.8203C225.199 29.8203 227.324 28.934 228.487 26.7774L224.966 24.8789C224.697 25.3785 224.192 25.8203 222.781 25.8203V29.8203ZM228.727 25.8281V10.8672H224.727V25.8281H228.727ZM226.727 12.8672H232.391V8.86719H226.727V12.8672ZM230.391 10.8672V32H234.391V10.8672H230.391ZM232.391 30H227.078V34H232.391V30ZM229.073 31.8549L228.917 29.7065L224.927 29.9966L225.083 32.1451L229.073 31.8549ZM243.406 5.67188H245.406V3.67188H243.406V5.67188ZM243.406 10.8672H241.406V12.8672H243.406V10.8672ZM247.02 10.8672H249.02V8.86719H247.02V10.8672ZM247.02 15.0078V17.0078H249.02V15.0078H247.02ZM243.406 15.0078V13.0078H241.406V15.0078H243.406ZM243.855 27.2344L245.353 25.9092L243.855 27.2344ZM247.234 27.6055H249.234V25.1916L246.863 25.6403L247.234 27.6055ZM247.234 31.8828L247.819 33.7953L249.234 33.3625V31.8828H247.234ZM237.762 26.3945H235.762V26.4141L235.762 26.4336L237.762 26.3945ZM237.762 15.0078H239.762V13.0078H237.762V15.0078ZM234.676 15.0078H232.676V17.0078H234.676V15.0078ZM234.676 10.8672V8.86719H232.676V10.8672H234.676ZM237.762 10.8672V12.8672H239.762V10.8672H237.762ZM237.762 5.67188V3.67188H235.762V5.67188H237.762ZM241.406 5.67188V10.8672H245.406V5.67188H241.406ZM243.406 12.8672H247.02V8.86719H243.406V12.8672ZM245.02 10.8672V15.0078H249.02V10.8672H245.02ZM247.02 13.0078H243.406V17.0078H247.02V13.0078ZM241.406 15.0078V25.5547H245.406V15.0078H241.406ZM241.406 25.5547C241.406 26.499 241.57 27.669 242.357 28.5595L245.353 25.9092C245.459 26.0282 245.467 26.1062 245.451 26.0438C245.433 25.9793 245.406 25.8271 245.406 25.5547H241.406ZM242.357 28.5595C243.26 29.5793 244.611 29.7422 245.574 29.7422V25.7422C245.428 25.7422 245.314 25.7348 245.228 25.7245C245.141 25.7142 245.093 25.7022 245.076 25.6972C245.037 25.6855 245.187 25.7205 245.353 25.9092L242.357 28.5595ZM245.574 29.7422C246.292 29.7422 246.974 29.6902 247.606 29.5706L246.863 25.6403C246.531 25.703 246.107 25.7422 245.574 25.7422V29.7422ZM245.234 27.6055V31.8828H249.234V27.6055H245.234ZM246.649 29.9703C245.735 30.2501 244.793 30.3906 243.816 30.3906V34.3906C245.184 34.3906 246.521 34.1926 247.819 33.7953L246.649 29.9703ZM243.816 30.3906C242.154 30.3906 241.249 29.9733 240.741 29.4705C240.23 28.9643 239.794 28.0478 239.761 26.3555L235.762 26.4336C235.807 28.7387 236.42 30.8202 237.927 32.3127C239.437 33.8086 241.521 34.3906 243.816 34.3906V30.3906ZM239.762 26.3945V15.0078H235.762V26.3945H239.762ZM237.762 13.0078H234.676V17.0078H237.762V13.0078ZM236.676 15.0078V10.8672H232.676V15.0078H236.676ZM234.676 12.8672H237.762V8.86719H234.676V12.8672ZM239.762 10.8672V5.67188H235.762V10.8672H239.762ZM237.762 7.67188H243.406V3.67188H237.762V7.67188Z" fill="#847577"/>
</svg>
